<svg xmlns="http://www.w3.org/2000/svg" style="display: none;"><symbol id="catering" viewBox="0 0 512 512"><title>catering</title><g> <g> <path d="M435.745,147.064H283.833c-4.513,0-8.17,3.658-8.17,8.17s3.657,8.17,8.17,8.17h151.911c4.513,0,8.17-3.658,8.17-8.17 S440.258,147.064,435.745,147.064z"/> </g> </g><g> <g> <path d="M495.775,212.426h-19.179v-81.702h2.723c4.513,0,8.17-3.658,8.17-8.17c0-4.512-3.657-8.17-8.17-8.17h-13.929 c-3.979-52.066-45.665-93.752-97.731-97.731V8.17c0-4.512-3.657-8.17-8.17-8.17s-8.17,3.658-8.17,8.17v8.482 c-52.066,3.979-93.752,45.665-97.731,97.731H239.66c-4.513,0-8.17,3.658-8.17,8.17c0,4.512,3.657,8.17,8.17,8.17h2.723v81.702 H185.17c3.575-4.753,6.141-10.306,7.371-16.34h3.545c4.513,0,8.17-3.658,8.17-8.17s-3.657-8.17-8.17-8.17H185.17 c3.575-4.753,6.141-10.306,7.371-16.34h3.545c4.513,0,8.17-3.658,8.17-8.17s-3.657-8.17-8.17-8.17H185.17 c3.575-4.753,6.141-10.306,7.371-16.34h3.545c4.513,0,8.17-3.658,8.17-8.17c0-4.512-3.657-8.17-8.17-8.17H185.17 c3.575-4.753,6.141-10.306,7.371-16.34h3.545c4.513,0,8.17-3.658,8.17-8.17c0-4.512-3.657-8.17-8.17-8.17H32.681 c-4.513,0-8.17,3.658-8.17,8.17c0,4.512,3.657,8.17,8.17,8.17h3.546c1.23,6.034,3.794,11.588,7.371,16.34H32.681 c-4.513,0-8.17,3.658-8.17,8.17c0,4.512,3.657,8.17,8.17,8.17h3.546c1.23,6.034,3.794,11.588,7.371,16.34H32.681 c-4.513,0-8.17,3.658-8.17,8.17s3.657,8.17,8.17,8.17h3.546c1.23,6.034,3.794,11.588,7.371,16.34H32.681 c-4.513,0-8.17,3.658-8.17,8.17s3.657,8.17,8.17,8.17h3.546c1.23,6.034,3.794,11.588,7.371,16.34H16.225 c-4.513,0-8.17,3.658-8.17,8.17v65.362c0,4.512,3.657,8.17,8.17,8.17h403.269c4.513,0,8.17-3.658,8.17-8.17s-3.657-8.17-8.17-8.17 H24.395v-49.021h463.211v49.021h-35.431c-4.513,0-8.17,3.658-8.17,8.17s3.657,8.17,8.17,8.17h32.59v168.48 c-12.302-1.192-19.384-5.099-27.371-9.506c-10.119-5.582-21.587-11.91-43.435-11.91c-21.848,0-33.317,6.328-43.435,11.91 c-9.606,5.3-17.903,9.877-35.543,9.877c-17.64,0-25.938-4.577-35.544-9.877c-10.119-5.582-21.587-11.91-43.437-11.91 s-33.318,6.328-43.437,11.91c-9.606,5.3-17.904,9.877-35.544,9.877c-17.639,0-25.937-4.577-35.542-9.877 c-10.118-5.582-21.586-11.91-43.434-11.91c-21.848,0-33.317,6.328-43.435,11.91c-2.276,1.255-4.479,2.466-6.75,3.589 c-5.705,2.821-11.829,5.064-20.623,5.916V318.638c0-4.512-3.657-8.17-8.17-8.17c-4.513,0-8.17,3.658-8.17,8.17v152.511 c0,4.512,3.657,8.17,8.17,8.17c10.095,0,17.957-1.359,24.511-3.363v27.873c0,4.512,3.657,8.17,8.17,8.17 c4.513,0,8.17-3.658,8.17-8.17v-35.004c0.873-0.475,1.736-0.948,2.585-1.416c9.606-5.3,17.903-9.877,35.542-9.877 c17.639,0,25.936,4.578,35.54,9.876c10.118,5.583,21.586,11.911,43.435,11.911c21.85,0,33.318-6.328,43.437-11.91 c9.606-5.3,17.904-9.877,35.544-9.877s25.938,4.578,35.544,9.877c10.119,5.583,21.587,11.91,43.437,11.91 c21.849,0,33.318-6.328,43.436-11.91c9.606-5.3,17.903-9.877,35.542-9.877s25.936,4.578,35.54,9.876 c0.849,0.468,1.711,0.941,2.584,1.416v35.006c0,4.512,3.657,8.17,8.17,8.17s8.17-3.658,8.17-8.17v-27.875 c6.554,2.004,14.415,3.364,24.511,3.364c4.513,0,8.17-3.658,8.17-8.17V292.143c1.737-1.498,2.841-3.71,2.841-6.185v-65.362 C503.945,216.084,500.288,212.426,495.775,212.426z M152.511,212.426H76.255c-10.651,0-19.733-6.831-23.105-16.34h122.466 C172.243,205.594,163.161,212.426,152.511,212.426z M152.511,179.745H76.255c-10.651,0-19.733-6.831-23.105-16.34h122.466 C172.243,172.913,163.161,179.745,152.511,179.745z M152.511,147.064H76.255c-10.651,0-19.733-6.831-23.105-16.34h122.466 C172.243,140.232,163.161,147.064,152.511,147.064z M152.511,114.383H76.255c-10.651,0-19.733-6.831-23.105-16.34h122.466 C172.243,107.552,163.161,114.383,152.511,114.383z M359.489,32.681c46.8,0,85.341,35.963,89.484,81.702H270.005 C274.149,68.644,312.689,32.681,359.489,32.681z M460.255,212.426H258.723v-81.702h201.532V212.426z"/> </g> </g><g> <g> <circle cx="446.638" cy="373.106" r="8.17"/> </g> </g><g> <g> <circle cx="413.957" cy="405.787" r="8.17"/> </g> </g></symbol><symbol id="table" viewBox="0 0 512 512"><title>table</title><path d="M505.041,133.538c-4.469-0.668-8.623,2.405-9.292,6.868l-23.467,156.445h-56.66l-1.184-27.234h2.36 c2.229,0,4.36-0.911,5.901-2.52c1.541-1.61,2.357-3.779,2.262-6.006l-2.841-65.361c-0.191-4.369-3.789-7.815-8.163-7.815h-68.085 v-28.639c9.509-3.373,16.34-12.455,16.34-23.105v-27.234c0-4.513-3.658-8.17-8.17-8.17h-32.681c-4.512,0-8.17,3.657-8.17,8.17 v27.234c0,10.651,6.831,19.733,16.34,23.105v28.639h-43.574v-78.978c0-13.686-9.229-25.249-21.787-28.816V32.682 c0-4.513-3.658-8.17-8.17-8.17c-4.512,0-8.17,3.657-8.17,8.17v47.439c-12.558,3.567-21.787,15.13-21.787,28.816v78.978h-43.574 v-28.639c9.509-3.373,16.34-12.455,16.34-23.105v-27.234c0-4.513-3.658-8.17-8.17-8.17h-32.681c-4.512,0-8.17,3.657-8.17,8.17 v27.234c0,10.651,6.831,19.733,16.34,23.105v28.639H98.043c-4.375,0-7.972,3.446-8.163,7.815l-2.841,65.361 c-0.096,2.227,0.72,4.396,2.262,6.006c1.541,1.61,3.673,2.52,5.901,2.52h2.361l-1.184,27.234H39.718L16.251,140.406 c-0.67-4.463-4.823-7.539-9.292-6.868c-4.462,0.669-7.536,4.83-6.867,9.291l24.42,162.801v173.687c0,4.513,3.658,8.17,8.17,8.17 c4.512,0,8.17-3.657,8.17-8.17V345.871h53.395l-4.366,100.41c-0.096,2.227,0.72,4.396,2.261,6.006 c1.541,1.61,3.673,2.52,5.901,2.52c10.095,0,17.957-1.359,24.511-3.363v27.873c0,4.513,3.658,8.17,8.17,8.17 c4.512,0,8.17-3.657,8.17-8.17v-35.004c0.874-0.475,1.738-0.949,2.586-1.417c7.984-4.404,15.082-8.3,27.373-9.494v45.915 c0,4.513,3.658,8.17,8.17,8.17c4.512,0,8.17-3.657,8.17-8.17v-45.915c12.292,1.194,19.389,5.089,27.373,9.495 c10.119,5.582,21.588,11.91,43.437,11.91s33.317-6.328,43.436-11.911c7.982-4.403,15.079-8.299,27.366-9.493v45.914 c0,4.513,3.658,8.17,8.17,8.17c4.512,0,8.17-3.657,8.17-8.17v-45.915c12.293,1.193,19.392,5.089,27.377,9.495 c0.848,0.467,1.71,0.941,2.583,1.415v35.007c0,4.513,3.658,8.17,8.17,8.17c4.512,0,8.17-3.657,8.17-8.17v-27.875 c6.554,2.004,14.415,3.364,24.511,3.364c2.229,0,4.36-0.911,5.901-2.52c1.541-1.61,2.357-3.779,2.262-6.006l-4.365-100.41h53.394 v133.446c0,4.513,3.658,8.17,8.17,8.17c4.512,0,8.17-3.657,8.17-8.17V305.631l24.42-162.801 C512.577,138.368,509.503,134.206,505.041,133.538z M94.957,329.531H40.852v-16.34h54.815L94.957,329.531z M329.531,117.107h16.34 v19.064c0,4.506-3.665,8.17-8.17,8.17s-8.17-3.665-8.17-8.17V117.107z M242.383,108.937c0-7.509,6.108-13.617,13.617-13.617 c7.509,0,13.617,6.108,13.617,13.617v78.978h-27.234V108.937z M166.128,117.107h16.34v19.064c0,4.506-3.665,8.17-8.17,8.17 s-8.17-3.665-8.17-8.17V117.107z M373.197,269.618h24.886l7.324,168.441c-12.069-1.235-19.087-5.108-26.991-9.468 c-10.118-5.583-21.586-11.911-43.435-11.911c-21.852,0.002-33.318,6.328-43.436,11.911c-9.606,5.299-17.903,9.876-35.541,9.876 c-17.641,0-25.938-4.577-35.544-9.876c-10.119-5.583-21.588-11.911-43.438-11.911c-21.849,0-33.318,6.328-43.437,11.911 c-2.276,1.255-4.479,2.467-6.751,3.591c-5.622,2.78-11.652,4.998-20.242,5.877l7.324-168.441h226.598 c4.512,0,8.17-3.657,8.17-8.17c0-4.513-3.658-8.17-8.17-8.17H103.735l2.132-49.021h300.267l2.132,49.021h-35.069 c-4.512,0-8.17,3.657-8.17,8.17C365.027,265.961,368.685,269.618,373.197,269.618z M471.149,329.531h-54.105l-0.71-16.34h54.815 V329.531z"/></symbol><symbol id="wine" viewBox="0 0 512 512"><title>wine</title><g> <g> <path d="M296.851,162.33V48.546c3.171-1.123,5.447-4.14,5.447-7.695s-2.276-6.572-5.447-7.695V8.17c0-4.512-3.657-8.17-8.17-8.17 h-65.362c-4.513,0-8.17,3.658-8.17,8.17v24.986c-3.171,1.123-5.447,4.14-5.447,7.695s2.276,6.572,5.447,7.695V162.33 c-29.951,15.29-49.021,46.144-49.021,80.053v130.723c0,4.512,3.657,8.17,8.17,8.17h155.234v89.872 c0,13.516-10.996,24.511-24.511,24.511h-98.043c-13.515,0-24.511-10.995-24.511-24.511v-65.362c0-4.512-3.657-8.17-8.17-8.17 c-4.513,0-8.17,3.658-8.17,8.17v65.362c0,22.526,18.325,40.851,40.851,40.851h98.043c22.526,0,40.851-18.325,40.851-40.851 V242.383C345.872,208.474,326.802,177.619,296.851,162.33z M231.489,16.34h49.021v16.34h-49.021V16.34z M231.489,49.021h49.021 v68.085h-49.021V49.021z M226.592,174.985c2.974-1.301,4.898-4.24,4.898-7.487v-34.051h49.021v34.051 c0,3.247,1.924,6.186,4.898,7.487c24.281,10.611,40.778,33.319,43.669,59.227H182.922 C185.814,208.304,202.311,185.597,226.592,174.985z M329.532,364.936H182.468V250.553h147.064V364.936z"/> </g> </g><g> <g> <path d="M491.302,495.66c-11.067,0-16.217-4.039-22.736-9.152c-5.906-4.632-13.011-10.188-24.651-12.014v-93.683 c36.714-4.079,65.362-35.284,65.362-73.067c0-2.556-0.134-5.142-0.399-7.683l-2.674-25.809c-0.005-0.05-6.775-65.392-6.775-65.392 c-0.431-4.164-3.94-7.328-8.127-7.328H380.187c-4.186,0-7.695,3.165-8.127,7.328l-9.449,91.201 c-0.265,2.555-0.399,5.14-0.399,7.683c0,37.783,28.648,68.988,65.362,73.067v93.683c-11.64,1.826-18.745,7.382-24.651,12.014 c-6.519,5.112-11.669,9.152-22.736,9.152c-4.513,0-8.17,3.658-8.17,8.17s3.657,8.17,8.17,8.17h111.115 c4.513,0,8.17-3.658,8.17-8.17S495.815,495.66,491.302,495.66z M378.553,307.745c0-1.984,0.106-4.002,0.312-5.999l8.69-83.873 h96.381l5.079,49.021h-82.917c-4.513,0-8.17,3.658-8.17,8.17s3.657,8.17,8.17,8.17h84.61l1.918,18.515 c0.206,1.986,0.312,4.003,0.312,5.996c0,31.536-25.657,57.191-57.191,57.191S378.553,339.281,378.553,307.745z M417.925,495.66 c4.667-3.229,9.619-5.447,17.82-5.447s13.153,2.218,17.82,5.447H417.925z"/> </g> </g><g> <g> <path d="M131.813,495.66c-11.067,0-16.217-4.039-22.736-9.152c-5.907-4.632-13.011-10.188-24.651-12.014v-93.683 c36.714-4.079,65.362-35.283,65.362-73.067c0-2.544-0.134-5.129-0.399-7.683l-2.674-25.809c-0.005-0.05-6.775-65.392-6.775-65.392 c-0.431-4.164-3.94-7.328-8.127-7.328H20.698c-4.186,0-7.695,3.165-8.127,7.328l-9.449,91.197 c-0.265,2.546-0.399,5.132-0.399,7.688c0,37.783,28.648,68.988,65.362,73.067v93.683c-11.64,1.826-18.745,7.382-24.651,12.014 c-6.519,5.112-11.669,9.152-22.736,9.152c-4.513,0-8.17,3.658-8.17,8.17s3.657,8.17,8.17,8.17h111.115 c4.513,0,8.17-3.658,8.17-8.17S136.326,495.66,131.813,495.66z M19.064,307.745c0-1.992,0.106-4.01,0.312-5.999l8.69-83.873 h96.381l5.079,49.021H46.607c-4.513,0-8.17,3.658-8.17,8.17s3.657,8.17,8.17,8.17h84.61l1.917,18.512 c0.206,1.997,0.312,4.016,0.312,5.999c0,31.536-25.657,57.191-57.191,57.191C44.719,364.936,19.064,339.281,19.064,307.745z M58.436,495.66c4.667-3.229,9.619-5.447,17.82-5.447c8.201,0,13.153,2.218,17.82,5.447H58.436z"/> </g> </g></symbol><symbol id="food-truck" viewBox="0 0 512 512"><title>food-truck</title><g> <g> <path d="M422.128,382.388c-13.516,0-24.511,10.995-24.511,24.511c0,4.512,3.658,8.17,8.17,8.17s8.17-3.658,8.17-8.17 c0-4.506,3.665-8.17,8.17-8.17c4.506,0,8.17,3.665,8.17,8.17c0,4.506-3.665,8.17-8.17,8.17c-4.512,0-8.17,3.658-8.17,8.17 c0,4.512,3.658,8.17,8.17,8.17c13.516,0,24.511-10.995,24.511-24.511S435.643,382.388,422.128,382.388z"/> </g> </g><g> <g> <path d="M89.872,382.388c-13.516,0-24.511,10.995-24.511,24.511c0,4.512,3.658,8.17,8.17,8.17s8.17-3.658,8.17-8.17 c0-4.506,3.665-8.17,8.17-8.17c4.506,0,8.17,3.665,8.17,8.17c0,4.506-3.665,8.17-8.17,8.17c-4.512,0-8.17,3.658-8.17,8.17 c0,4.512,3.658,8.17,8.17,8.17c13.516,0,24.511-10.995,24.511-24.511S103.388,382.388,89.872,382.388z"/> </g> </g><g> <g> <path d="M389.447,241.817H40.851c-4.512,0-8.17,3.658-8.17,8.17c0,4.512,3.658,8.17,8.17,8.17h348.596 c4.512,0,8.17-3.658,8.17-8.17C397.617,245.475,393.959,241.817,389.447,241.817z"/> </g> </g><g> <g> <path d="M511.992,334.345c-0.001-0.041-0.001-0.083-0.003-0.124c-0.226-21.743-17.373-43.152-38.342-47.837l-43.349-10.188V88.761 c0-22.526-18.325-40.851-40.851-40.851H40.851C18.325,47.91,0,66.236,0,88.761v318.137c0,4.512,3.658,8.17,8.17,8.17h25.103 c3.977,27.677,27.838,49.021,56.599,49.021c31.536,0,57.191-25.656,57.191-57.191s-25.656-57.191-57.191-57.191 c-28.761,0-52.621,21.344-56.599,49.021H16.34v-107.89H421.18l39.148,9.2c-0.827,2.964-1.271,5.996-1.271,9.035 c0,19.521,15.883,35.404,35.404,35.404c0.401,0,0.8-0.013,1.198-0.026v54.275h-16.933c-3.977-27.677-27.838-49.021-56.599-49.021 s-52.62,21.344-56.599,49.021H171.574c-4.512,0-8.17,3.658-8.17,8.17s3.658,8.17,8.17,8.17h193.954 c3.977,27.677,27.838,49.021,56.599,49.021c28.761,0,52.621-21.344,56.599-49.021h25.103c4.512,0,8.17-3.658,8.17-8.17v-72.244 C512,334.551,511.993,334.447,511.992,334.345z M89.872,366.047c22.526,0,40.851,18.325,40.851,40.851 s-18.325,40.851-40.851,40.851s-40.851-18.326-40.851-40.851S67.347,366.047,89.872,366.047z M413.957,274.497H16.34V169.083 c8.798,7.961,20.454,12.818,33.226,12.818c17.285,0,32.523-8.899,41.396-22.349c8.873,13.45,24.111,22.349,41.396,22.349 c17.285,0,32.523-8.899,41.396-22.349c8.873,13.45,24.111,22.349,41.396,22.349s32.523-8.899,41.396-22.349 c8.873,13.45,24.111,22.349,41.396,22.349s32.523-8.899,41.396-22.349c8.873,13.45,24.111,22.349,41.396,22.349 c12.772,0,24.428-4.857,33.226-12.818V274.497z M17.36,140.506h64.412c-3.65,14.383-16.704,25.055-32.206,25.055 C34.064,165.561,21.011,154.889,17.36,140.506z M100.152,140.506h64.412c-3.65,14.383-16.704,25.055-32.206,25.055 C116.856,165.561,103.802,154.889,100.152,140.506z M182.943,140.506h64.412c-3.65,14.383-16.704,25.055-32.206,25.055 C199.647,165.561,186.593,154.889,182.943,140.506z M265.735,140.506h64.412c-3.65,14.383-16.704,25.055-32.206,25.055 S269.385,154.889,265.735,140.506z M348.526,140.506h64.412c-3.65,14.383-16.704,25.055-32.206,25.055 S352.176,154.889,348.526,140.506z M413.957,124.165h-66.451V88.761c0-4.512-3.658-8.17-8.17-8.17s-8.17,3.658-8.17,8.17v35.404 h-66.451V88.761c0-4.512-3.658-8.17-8.17-8.17c-4.512,0-8.17,3.658-8.17,8.17v35.404h-66.451V88.761c0-4.512-3.658-8.17-8.17-8.17 c-4.512,0-8.17,3.658-8.17,8.17v35.404H99.132V88.761c0-4.512-3.658-8.17-8.17-8.17s-8.17,3.658-8.17,8.17v35.404H16.34V88.761 c0-13.515,10.995-24.511,24.511-24.511h348.596c13.516,0,24.511,10.995,24.511,24.511V124.165z M494.461,328.138 c-10.512,0-19.064-8.552-19.064-19.064c0-1.549,0.221-3.083,0.637-4.596c8.998,4.453,16.426,13.791,18.815,23.643 C494.721,328.123,494.592,328.138,494.461,328.138z M422.128,447.749c-22.526,0-40.851-18.325-40.851-40.851 s18.325-40.851,40.851-40.851c22.526,0,40.851,18.325,40.851,40.851S444.654,447.749,422.128,447.749z"/> </g> </g></symbol><symbol id="restaurant-location" viewBox="0 0 512 512"><title>restaurant-location</title><g> <g> <path d="M256,0C149.164,0,62.247,86.918,62.247,193.753c0,42.044,13.232,82.028,38.276,115.64L249.455,508.72 c1.543,2.064,3.969,3.28,6.545,3.28c2.576,0,5.002-1.216,6.545-3.28l148.939-199.336c25.036-33.602,38.269-73.587,38.269-115.631 C449.753,86.918,362.836,0,256,0z M398.387,299.613L256,490.18L113.619,299.621c-22.918-30.76-35.032-67.368-35.032-105.869 C78.588,95.928,158.174,16.34,256,16.34s177.412,79.588,177.412,177.412C433.412,232.253,421.299,268.861,398.387,299.613z"/> </g> </g><g> <g> <path d="M250.553,90.816c-4.512,0-8.17,3.658-8.17,8.17v44.119h-16.34V98.986c0-4.512-3.658-8.17-8.17-8.17 c-4.512,0-8.17,3.658-8.17,8.17v44.119h-16.34V98.986c0-4.512-3.658-8.17-8.17-8.17c-4.512,0-8.17,3.658-8.17,8.17v65.362 c0,19.728,14.057,36.233,32.681,40.029v84.148c0,4.512,3.658,8.17,8.17,8.17c4.512,0,8.17-3.658,8.17-8.17v-84.148 c18.624-3.795,32.681-20.3,32.681-40.029V98.986C258.723,94.474,255.065,90.816,250.553,90.816z M242.383,164.348 c0,13.516-10.995,24.511-24.511,24.511c-13.516,0-24.511-10.995-24.511-24.511v-4.902h49.021V164.348z"/> </g> </g><g> <g> <path d="M305.021,90.816c-16.519,0-29.957,13.438-29.957,29.957v83.881c0,16.519,13.438,29.957,29.957,29.957h13.617v53.914 c0,4.512,3.658,8.17,8.17,8.17s8.17-3.658,8.17-8.17V120.773C334.979,104.254,321.54,90.816,305.021,90.816z M318.638,218.271 h-13.617c-7.509,0-13.617-6.108-13.617-13.617v-83.881c0-7.509,6.108-13.617,13.617-13.617s13.617,6.108,13.617,13.617V218.271z"/> </g> </g><g> <g> <path d="M256,33.072c-88.6,0-160.681,72.081-160.681,160.681c0,36.569,12.625,72.364,35.549,100.791 c2.833,3.513,7.976,4.064,11.488,1.231c3.512-2.833,4.063-7.976,1.231-11.488c-20.889-25.902-31.929-57.208-31.929-90.534 c0-79.59,64.751-144.34,144.34-144.34s144.34,64.751,144.34,144.34s-64.751,144.34-144.34,144.34 c-33.327,0-64.632-11.041-90.533-31.929c-3.512-2.833-8.656-2.282-11.488,1.231c-2.833,3.512-2.282,8.656,1.231,11.488 c28.426,22.924,64.221,35.55,100.79,35.55c88.6,0,160.681-72.081,160.681-160.681S344.6,33.072,256,33.072z"/> </g> </g></symbol><symbol id="food-menu" viewBox="0 0 512 512"><title>food-menu</title><g> <g> <path d="M413.957,0H98.043C75.517,0,57.192,18.325,57.192,40.851v430.298c0,22.526,18.325,40.851,40.851,40.851h315.915 c22.526,0,40.851-18.325,40.851-40.851V40.851C454.809,18.325,436.483,0,413.957,0z M187.915,16.34h136.17v16.34h-136.17V16.34z M187.915,49.021h136.17v19.064c0,4.506-3.665,8.17-8.17,8.17h-119.83c-4.506,0-8.17-3.665-8.17-8.17V49.021z M438.468,471.149 c0,13.516-10.996,24.511-24.511,24.511H98.043c-13.516,0-24.511-10.995-24.511-24.511V40.851 c0-13.516,10.995-24.511,24.511-24.511h73.532v51.745c0,13.516,10.995,24.511,24.511,24.511h119.83 c13.515,0,24.511-10.995,24.511-24.511V16.34h73.532c13.515,0,24.511,10.995,24.511,24.511V471.149z"/> </g> </g><g> <g> <path d="M413.957,32.681h-49.021c-4.513,0-8.17,3.658-8.17,8.17s3.657,8.17,8.17,8.17h40.851v413.957H106.213V49.021h40.851 c4.512,0,8.17-3.658,8.17-8.17s-3.657-8.17-8.17-8.17H98.043c-4.512,0-8.17,3.658-8.17,8.17v430.298c0,4.512,3.658,8.17,8.17,8.17 h315.915c4.513,0,8.17-3.658,8.17-8.17V40.851C422.128,36.339,418.471,32.681,413.957,32.681z"/> </g> </g><g> <g> <path d="M250.553,207.529c-4.512,0-8.17,3.658-8.17,8.17v44.119h-16.34v-44.119c0-4.512-3.658-8.17-8.17-8.17 c-4.512,0-8.17,3.658-8.17,8.17v44.119h-16.34v-44.119c0-4.512-3.658-8.17-8.17-8.17c-4.512,0-8.17,3.658-8.17,8.17v65.362 c0,19.728,14.057,36.233,32.681,40.029v84.148c0,4.512,3.658,8.17,8.17,8.17c4.512,0,8.17-3.658,8.17-8.17v-84.148 c18.624-3.795,32.681-20.3,32.681-40.029v-65.362C258.723,211.187,255.065,207.529,250.553,207.529z M242.383,281.061 c0,13.516-10.995,24.511-24.511,24.511c-13.516,0-24.511-10.995-24.511-24.511v-4.902h49.021V281.061z"/> </g> </g><g> <g> <path d="M305.021,207.529c-16.518,0-29.957,13.438-29.957,29.957v83.881c0,16.519,13.439,29.957,29.957,29.957h13.617v53.913 c0,4.512,3.657,8.17,8.17,8.17c4.513,0,8.17-3.658,8.17-8.17V237.486C334.979,220.967,321.539,207.529,305.021,207.529z M318.638,334.984h-13.617c-7.509,0-13.617-6.108-13.617-13.617v-83.881c0-7.509,6.108-13.617,13.617-13.617 s13.617,6.108,13.617,13.617V334.984z"/> </g> </g><g> <g> <path d="M332.35,166.122l-23.599-21.787c-3.132-2.889-7.956-2.89-11.085,0l-18.057,16.671l-18.057-16.671 c-3.129-2.888-7.952-2.889-11.083-0.001l-18.067,16.673l-18.058-16.672c-3.129-2.888-7.952-2.889-11.083-0.001l-23.61,21.787 c-3.316,3.06-3.523,8.229-0.463,11.545c1.611,1.744,3.805,2.629,6.007,2.629c1.982,0,3.969-0.717,5.538-2.166l18.067-16.673 l18.058,16.672c3.13,2.889,7.952,2.889,11.083,0.001l18.067-16.673l18.058,16.672c3.131,2.888,7.955,2.889,11.085,0l18.057-16.671 l18.056,16.671c3.315,3.061,8.484,2.854,11.546-0.461C335.872,174.352,335.665,169.183,332.35,166.122z"/> </g> </g></symbol><symbol id="people" viewBox="0 0 512 512"><title>people</title><g> <g> <path d="M162.108,420.513c-0.941-2.896-3.414-5.028-6.417-5.533l-42.782-7.18l-20.05-38.471c-1.406-2.699-4.199-4.393-7.244-4.393 c-3.045,0-5.838,1.694-7.245,4.394l-20.05,38.471l-42.782,7.18c-3.003,0.503-5.477,2.636-6.419,5.533s-0.193,6.075,1.94,8.249 l30.392,30.956l-6.392,42.908c-0.449,3.012,0.815,6.023,3.279,7.813c2.462,1.79,5.718,2.06,8.444,0.704l38.832-19.338 l38.833,19.337c1.153,0.574,2.4,0.857,3.641,0.857c1.696,0,3.381-0.527,4.803-1.561c2.464-1.79,3.728-4.802,3.279-7.813 l-6.392-42.908l30.392-30.956C162.301,426.589,163.049,423.409,162.108,420.513z M115.267,451.174 c-1.794,1.829-2.629,4.393-2.251,6.927l4.681,31.427l-28.441-14.164c-2.293-1.142-4.99-1.143-7.285,0l-28.442,14.164l4.681-31.427 c0.378-2.534-0.455-5.099-2.251-6.927L33.7,428.502l31.336-5.258c2.527-0.424,4.709-2.009,5.893-4.281l14.685-28.176 l14.685,28.176c1.184,2.272,3.366,3.857,5.893,4.281l31.334,5.258L115.267,451.174z"/> </g> </g><g> <g> <path d="M332.496,420.513c-0.941-2.896-3.415-5.029-6.419-5.533l-42.783-7.18l-20.05-38.471c-1.407-2.699-4.201-4.393-7.245-4.393 c-3.045,0-5.838,1.694-7.245,4.394l-20.05,38.471l-42.782,7.18c-3.003,0.503-5.477,2.636-6.419,5.533 c-0.941,2.897-0.194,6.075,1.94,8.249l30.392,30.956l-6.392,42.908c-0.449,3.012,0.815,6.023,3.279,7.813 c2.462,1.79,5.717,2.061,8.444,0.704L256,491.805l38.832,19.337c1.153,0.574,2.4,0.857,3.641,0.857 c1.696,0,3.381-0.527,4.803-1.56c2.464-1.791,3.728-4.802,3.279-7.814l-6.391-42.908l30.392-30.956 C332.689,426.589,333.437,423.409,332.496,420.513z M285.654,451.174c-1.794,1.829-2.629,4.393-2.251,6.927l4.681,31.427 l-28.441-14.163c-1.147-0.571-2.394-0.857-3.642-0.857s-2.496,0.285-3.642,0.857l-28.441,14.163l4.681-31.427 c0.378-2.535-0.455-5.099-2.251-6.927l-22.26-22.673l31.336-5.258c2.527-0.424,4.709-2.009,5.893-4.281L256,390.785l14.685,28.176 c1.184,2.272,3.366,3.857,5.893,4.281l31.335,5.258L285.654,451.174z"/> </g> </g><g> <g> <path d="M502.882,420.513c-0.941-2.897-3.415-5.029-6.419-5.533l-42.782-7.18l-20.05-38.471c-1.407-2.701-4.2-4.394-7.245-4.394 s-5.838,1.694-7.245,4.394l-20.05,38.471l-42.783,7.18c-3.003,0.503-5.477,2.636-6.419,5.533s-0.194,6.075,1.94,8.249 l30.392,30.956l-6.392,42.908c-0.449,3.012,0.815,6.023,3.279,7.813c2.462,1.79,5.717,2.06,8.444,0.704l38.833-19.338 l38.832,19.337c1.153,0.574,2.4,0.857,3.641,0.857c1.696,0,3.381-0.527,4.803-1.561c2.464-1.79,3.728-4.802,3.279-7.813 l-6.392-42.908l30.392-30.956C503.075,426.589,503.823,423.41,502.882,420.513z M456.04,451.174 c-1.795,1.829-2.629,4.393-2.251,6.927l4.681,31.427l-28.441-14.163c-2.293-1.142-4.99-1.143-7.285,0l-28.442,14.164l4.681-31.427 c0.378-2.534-0.455-5.099-2.251-6.927l-22.26-22.673l31.336-5.258c2.527-0.424,4.709-2.009,5.893-4.281l14.685-28.176 l14.685,28.176c1.184,2.272,3.366,3.857,5.893,4.281l31.334,5.258L456.04,451.174z"/> </g> </g><g> <g> <path d="M387.814,0.011c-4.512,0-8.17,3.658-8.17,8.17v51.745h-16.34V8.181c0-4.512-3.658-8.17-8.17-8.17 c-4.512,0-8.17,3.658-8.17,8.17v51.745h-16.34V8.181c0-4.512-3.658-8.17-8.17-8.17s-8.17,3.658-8.17,8.17v81.702 c0,12.889,6.157,25.01,16.34,32.67v201.543c0,13.516,10.995,24.511,24.511,24.511c13.516,0,24.511-10.995,24.511-24.511V122.553 c10.183-7.66,16.34-19.781,16.34-32.67V8.181C395.984,3.669,392.326,0.011,387.814,0.011z M379.644,89.883 c0,8.716-4.698,16.849-12.262,21.226c-2.524,1.46-4.079,4.155-4.079,7.071v205.916c0,4.506-3.665,8.17-8.17,8.17 c-4.506,0-8.17-3.665-8.17-8.17V118.18c0-2.916-1.555-5.611-4.079-7.071c-7.563-4.377-12.262-12.51-12.262-21.226V76.266h49.021 V89.883z"/> </g> </g><g> <g> <path d="M445.006,0c-18.02,0-32.681,14.661-32.681,32.681v128c0,18.02,14.661,32.681,32.681,32.681h16.34v130.723 c0,4.506-3.665,8.17-8.17,8.17c-4.506,0-8.17-3.665-8.17-8.17V217.872c0-4.512-3.658-8.17-8.17-8.17s-8.17,3.658-8.17,8.17 v106.213c0,13.516,10.995,24.511,24.511,24.511c13.516,0,24.511-10.995,24.511-24.511V32.681C477.686,14.661,463.026,0,445.006,0z M461.346,177.021h-16.34c-9.01,0-16.34-7.33-16.34-16.34v-128c0-9.01,7.33-16.34,16.34-16.34c9.01,0,16.34,7.33,16.34,16.34 V177.021z"/> </g> </g><g> <g> <path d="M174.299,0c-50.758,0-92.051,41.294-92.051,92.051c0,50.757,41.294,92.051,92.051,92.051 c50.757,0,92.051-41.294,92.051-92.051C266.35,41.294,225.057,0,174.299,0z M174.299,167.762 c-41.747,0-75.711-33.964-75.711-75.711s33.964-75.711,75.711-75.711s75.711,33.964,75.711,75.711 S216.046,167.762,174.299,167.762z"/> </g> </g><g> <g> <path d="M195.01,101.08c-4.25-1.509-8.924,0.709-10.435,4.962c-1.543,4.338-5.672,7.252-10.276,7.252s-8.734-2.914-10.276-7.252 c-1.512-4.252-6.184-6.471-10.435-4.962c-4.252,1.512-6.473,6.183-4.962,10.435c3.854,10.838,14.17,18.119,25.673,18.119 c11.503,0,21.82-7.281,25.673-18.119C201.483,107.263,199.262,102.592,195.01,101.08z"/> </g> </g><g> <g> <path d="M174.299,200.453c-31.423,0-61.116,10.178-85.872,29.433c-3.561,2.77-4.203,7.903-1.432,11.464 c2.769,3.562,7.902,4.203,11.466,1.432c21.86-17.003,48.084-25.991,75.839-25.991c65.43,0,119.153,51.091,123.376,115.472H50.919 c1.594-24.783,10.445-48.082,25.84-67.814c2.776-3.558,2.142-8.692-1.416-11.467c-3.558-2.777-8.693-2.141-11.467,1.416 c-19.337,24.785-29.559,54.537-29.559,86.036c-0.001,4.512,3.657,8.17,8.169,8.17h263.626c4.512,0,8.17-3.658,8.17-8.17 C314.282,263.25,251.486,200.453,174.299,200.453z"/> </g> </g></symbol><symbol id="vegan" viewBox="0 0 512 512"><title>vegan</title><g> <g> <path d="M256.005,125.277c-72.081,0-130.723,58.643-130.723,130.723c0,28.927,9.265,56.345,26.794,79.288 c2.74,3.585,7.867,4.272,11.452,1.533c3.586-2.74,4.273-7.867,1.533-11.452c-15.334-20.069-23.439-44.057-23.439-69.368 c0-63.071,51.312-114.383,114.383-114.383S370.388,192.929,370.388,256c0,63.071-51.312,114.383-114.383,114.383 c-25.311,0-49.299-8.105-69.368-23.439c-3.585-2.74-8.713-2.052-11.454,1.532c-2.74,3.586-2.053,8.713,1.532,11.452 c22.944,17.53,50.362,26.795,79.29,26.795c72.081,0,130.723-58.643,130.723-130.723S328.086,125.277,256.005,125.277z"/> </g> </g><g> <g> <path d="M256.005,81.702c-96.109,0-174.298,78.19-174.298,174.298s78.189,174.298,174.298,174.298S430.303,352.108,430.303,256 S352.113,81.702,256.005,81.702z M256.005,413.957c-87.098,0-157.957-70.86-157.957-157.957s70.86-157.957,157.957-157.957 S413.963,168.902,413.963,256S343.103,413.957,256.005,413.957z"/> </g> </g><g> <g> <path d="M327.409,190.219c-0.774-2.721-2.901-4.848-5.622-5.622c-9.632-2.741-19.425-4.131-29.109-4.131 c-24.613,0-47.213,9.045-63.637,25.469c-22.216,22.216-30.479,54.831-22.559,88.033l-19.808,19.808 c-3.191,3.192-3.191,8.365-0.001,11.556c1.596,1.595,3.688,2.393,5.778,2.393c2.091,0,4.182-0.797,5.778-2.393l19.811-19.811 c8.101,1.926,16.284,2.913,24.394,2.913c24.612,0,47.213-9.046,63.636-25.469C329.337,259.698,337.314,225.026,327.409,190.219z M294.514,271.411c-13.337,13.338-31.832,20.683-52.077,20.683c-3.437,0-6.889-0.211-10.346-0.625l64.349-64.349 c3.191-3.191,3.191-8.364,0-11.554c-3.192-3.191-8.364-3.191-11.555,0l-64.36,64.359c-2.904-23.933,4.188-46.554,20.068-62.436 c13.337-13.338,31.834-20.683,52.082-20.683c6.687,0,13.453,0.79,20.172,2.353C319.259,226.637,312.553,253.372,294.514,271.411z"/> </g> </g><g> <g> <path d="M73.532,81.702c-4.513,0-8.17,3.658-8.17,8.17v51.745h-16.34V89.872c0-4.512-3.657-8.17-8.17-8.17s-8.17,3.658-8.17,8.17 v51.745H16.34V89.872c0-4.512-3.657-8.17-8.17-8.17S0,85.36,0,89.872v81.702c0,12.888,6.157,25.01,16.34,32.67v201.543 c0,13.516,10.996,24.511,24.511,24.511c13.515,0,24.511-10.995,24.511-24.511V204.244c10.183-7.66,16.34-19.782,16.34-32.67 V89.872C81.702,85.36,78.045,81.702,73.532,81.702z M65.362,171.574c0,8.716-4.698,16.849-12.263,21.226 c-2.523,1.461-4.077,4.156-4.077,7.072v205.914c0,4.506-3.665,8.17-8.17,8.17s-8.17-3.665-8.17-8.17V199.873 c0-2.916-1.555-5.61-4.077-7.071c-7.565-4.378-12.263-12.511-12.263-21.227v-13.617h49.021V171.574z"/> </g> </g><g> <g> <path d="M479.319,81.702c-18.02,0-32.681,14.661-32.681,32.681v128c0,18.02,14.661,32.681,32.681,32.681h16.34v130.723 c0,4.506-3.665,8.17-8.17,8.17c-4.506,0-8.17-3.665-8.17-8.171l-0.011-106.213c0-4.512-3.658-8.17-8.171-8.169 c-4.512,0-8.169,3.658-8.169,8.171l0.011,106.212c0,13.516,10.996,24.511,24.511,24.511c13.515,0,24.511-10.995,24.511-24.511 V114.383C512,96.363,497.339,81.702,479.319,81.702z M495.66,258.723h-16.34c-9.01,0-16.34-7.33-16.34-16.34v-128 c0-9.01,7.33-16.34,16.34-16.34s16.34,7.33,16.34,16.34V258.723z"/> </g> </g></symbol><symbol id="restaurant-times" viewBox="0 0 512 512"><title>restaurant-times</title><g> <g> <path d="M256.005,125.277c-72.081,0-130.723,58.643-130.723,130.723c0,28.927,9.265,56.345,26.794,79.288 c2.74,3.585,7.867,4.272,11.452,1.533c3.586-2.74,4.273-7.867,1.533-11.452c-15.334-20.069-23.439-44.057-23.439-69.368 c0-63.071,51.312-114.383,114.383-114.383S370.388,192.929,370.388,256c0,63.071-51.312,114.383-114.383,114.383 c-25.311,0-49.299-8.105-69.368-23.439c-3.586-2.74-8.713-2.052-11.454,1.532c-2.74,3.586-2.053,8.713,1.532,11.452 c22.944,17.53,50.362,26.795,79.29,26.795c72.081,0,130.723-58.643,130.723-130.723S328.086,125.277,256.005,125.277z"/> </g> </g><g> <g> <path d="M256.005,81.702c-96.109,0-174.298,78.19-174.298,174.298s78.189,174.298,174.298,174.298S430.303,352.108,430.303,256 S352.113,81.702,256.005,81.702z M256.005,413.957c-87.098,0-157.957-70.86-157.957-157.957s70.86-157.957,157.957-157.957 S413.963,168.902,413.963,256S343.103,413.957,256.005,413.957z"/> </g> </g><g> <g> <path d="M256,157.963c-4.513,0-8.17,3.658-8.17,8.17v5.447c0,4.512,3.657,8.17,8.17,8.17c4.513,0,8.17-3.658,8.17-8.17v-5.447 C264.17,161.621,260.513,157.963,256,157.963z"/> </g> </g><g> <g> <path d="M220.863,178.807l-2.723-4.718c-2.255-3.908-7.251-5.249-11.16-2.991c-3.908,2.256-5.246,7.253-2.99,11.16l2.723,4.718 c1.513,2.621,4.259,4.087,7.083,4.087c1.386,0,2.791-0.353,4.078-1.096C221.78,187.711,223.119,182.714,220.863,178.807z"/> </g> </g><g> <g> <path d="M186.97,206.717l-4.717-2.723c-3.91-2.257-8.906-0.918-11.161,2.99c-2.257,3.908-0.917,8.904,2.99,11.161l4.717,2.723 c1.288,0.743,2.692,1.096,4.077,1.096c2.824,0,5.57-1.465,7.083-4.086C192.217,213.97,190.878,208.973,186.97,206.717z"/> </g> </g><g> <g> <path d="M171.574,247.835h-5.447c-4.513,0-8.17,3.658-8.17,8.17c0,4.512,3.657,8.17,8.17,8.17h5.447c4.513,0,8.17-3.658,8.17-8.17 C179.745,251.493,176.088,247.835,171.574,247.835z"/> </g> </g><g> <g> <path d="M189.961,294.133c-2.256-3.908-7.255-5.246-11.16-2.99l-4.717,2.723c-3.908,2.256-5.246,7.253-2.99,11.161 c1.514,2.621,4.259,4.086,7.083,4.086c1.386,0,2.791-0.353,4.077-1.096l4.717-2.723 C190.878,303.038,192.217,298.041,189.961,294.133z"/> </g> </g><g> <g> <path d="M217.872,322.045c-3.911-2.257-8.906-0.918-11.161,2.99l-2.723,4.717c-2.256,3.909-0.917,8.904,2.99,11.161 c1.288,0.743,2.692,1.096,4.077,1.096c2.824,0,5.57-1.465,7.083-4.086l2.723-4.717 C223.119,329.298,221.78,324.301,217.872,322.045z"/> </g> </g><g> <g> <path d="M256,332.261c-4.513,0-8.17,3.658-8.17,8.17v5.447c0,4.512,3.657,8.17,8.17,8.17c4.513,0,8.17-3.658,8.17-8.17v-5.447 C264.17,335.919,260.513,332.261,256,332.261z"/> </g> </g><g> <g> <path d="M308.012,329.752l-2.723-4.717c-2.257-3.908-7.255-5.247-11.161-2.99c-3.908,2.256-5.246,7.253-2.99,11.161l2.723,4.717 c1.514,2.621,4.259,4.086,7.083,4.086c1.386,0,2.792-0.353,4.077-1.096C308.929,338.656,310.268,333.659,308.012,329.752z"/> </g> </g><g> <g> <path d="M337.917,293.866l-4.717-2.723c-3.91-2.257-8.906-0.917-11.161,2.99c-2.256,3.908-0.917,8.904,2.99,11.161l4.717,2.723 c1.288,0.743,2.692,1.096,4.078,1.096c2.824,0,5.57-1.465,7.083-4.086C343.163,301.119,341.824,296.122,337.917,293.866z"/> </g> </g><g> <g> <path d="M345.872,247.835h-5.447c-4.513,0-8.17,3.658-8.17,8.17c0,4.512,3.657,8.17,8.17,8.17h5.447c4.513,0,8.17-3.658,8.17-8.17 C354.043,251.493,350.386,247.835,345.872,247.835z"/> </g> </g><g> <g> <path d="M340.907,206.984c-2.257-3.909-7.254-5.247-11.161-2.99l-4.717,2.723c-3.908,2.256-5.246,7.253-2.99,11.161 c1.514,2.621,4.259,4.086,7.083,4.086c1.386,0,2.792-0.353,4.077-1.096l4.717-2.723 C341.824,215.889,343.163,210.892,340.907,206.984z"/> </g> </g><g> <g> <path d="M305.021,171.096c-3.911-2.258-8.907-0.917-11.16,2.991l-2.723,4.718c-2.256,3.909-0.917,8.906,2.99,11.161 c1.288,0.743,2.692,1.096,4.077,1.096c2.824,0,5.57-1.466,7.083-4.087l2.723-4.718 C310.268,178.349,308.929,173.352,305.021,171.096z"/> </g> </g><g> <g> <path d="M256,196.091c-4.513,0-8.17,3.658-8.17,8.17v43.574h-32.681c-4.513,0-8.17,3.658-8.17,8.17c0,4.512,3.657,8.17,8.17,8.17 H256c4.513,0,8.17-3.658,8.17-8.17v-51.745C264.17,199.749,260.513,196.091,256,196.091z"/> </g> </g><g> <g> <path d="M73.532,81.702c-4.513,0-8.17,3.658-8.17,8.17v51.745h-16.34V89.872c0-4.512-3.657-8.17-8.17-8.17s-8.17,3.658-8.17,8.17 v51.745H16.34V89.872c0-4.512-3.657-8.17-8.17-8.17S0,85.36,0,89.872v81.702c0,12.888,6.157,25.01,16.34,32.67v201.543 c0,13.516,10.996,24.511,24.511,24.511c13.515,0,24.511-10.995,24.511-24.511V204.244c10.183-7.66,16.34-19.782,16.34-32.67 V89.872C81.702,85.36,78.045,81.702,73.532,81.702z M65.362,171.574c0,8.716-4.698,16.849-12.263,21.226 c-2.523,1.461-4.077,4.156-4.077,7.072v205.914c0,4.506-3.665,8.17-8.17,8.17s-8.17-3.665-8.17-8.17V199.873 c0-2.916-1.555-5.61-4.077-7.071c-7.565-4.378-12.263-12.511-12.263-21.227v-13.617h49.021V171.574z"/> </g> </g><g> <g> <path d="M479.319,81.702c-18.02,0-32.681,14.661-32.681,32.681v128c0,18.02,14.661,32.681,32.681,32.681h16.34v130.723 c0,4.506-3.665,8.17-8.17,8.17c-4.506,0-8.17-3.665-8.17-8.171l-0.011-106.213c0-4.512-3.658-8.17-8.171-8.169 c-4.512,0-8.169,3.658-8.169,8.171l0.011,106.212c0,13.516,10.996,24.511,24.511,24.511c13.515,0,24.511-10.995,24.511-24.511 V114.383C512,96.363,497.339,81.702,479.319,81.702z M495.66,258.723h-16.34c-9.01,0-16.34-7.33-16.34-16.34v-128 c0-9.01,7.33-16.34,16.34-16.34s16.34,7.33,16.34,16.34V258.723z"/> </g> </g></symbol><symbol id="drinks-menu" viewBox="0 0 512 512"><title>drinks-menu</title><g> <g> <path d="M413.957,0H98.043C75.517,0,57.192,18.325,57.192,40.851v430.298c0,22.526,18.325,40.851,40.851,40.851h315.915 c22.526,0,40.851-18.325,40.851-40.851V40.851C454.809,18.325,436.483,0,413.957,0z M187.915,16.34h136.17v16.34h-136.17V16.34z M187.915,49.021h136.17v19.064c0,4.506-3.665,8.17-8.17,8.17h-119.83c-4.506,0-8.17-3.665-8.17-8.17V49.021z M438.468,471.149 c0,13.516-10.996,24.511-24.511,24.511H98.043c-13.515,0-24.511-10.995-24.511-24.511V40.851 c0-13.516,10.996-24.511,24.511-24.511h73.532v51.745c0,13.516,10.996,24.511,24.511,24.511h119.83 c13.515,0,24.511-10.995,24.511-24.511V16.34h73.532c13.515,0,24.511,10.995,24.511,24.511V471.149z"/> </g> </g><g> <g> <path d="M413.957,32.681h-49.021c-4.513,0-8.17,3.658-8.17,8.17s3.657,8.17,8.17,8.17h40.851v413.957H106.213V49.021h40.851 c4.513,0,8.17-3.658,8.17-8.17s-3.657-8.17-8.17-8.17H98.043c-4.513,0-8.17,3.658-8.17,8.17v430.298c0,4.512,3.657,8.17,8.17,8.17 h315.915c4.513,0,8.17-3.658,8.17-8.17V40.851C422.128,36.339,418.471,32.681,413.957,32.681z"/> </g> </g><g> <g> <path d="M332.351,166.122l-23.599-21.787c-3.132-2.889-7.956-2.89-11.085,0l-18.057,16.671l-18.056-16.671 c-3.13-2.889-7.956-2.889-11.083-0.001l-18.068,16.673l-18.058-16.672c-3.132-2.889-7.956-2.888-11.083-0.001l-23.61,21.787 c-3.316,3.06-3.524,8.229-0.464,11.545c1.611,1.744,3.805,2.629,6.007,2.629c1.98,0,3.969-0.717,5.538-2.166l18.068-16.673 l18.058,16.672c3.132,2.889,7.956,2.888,11.083,0.001l18.068-16.673l18.057,16.672c3.13,2.888,7.953,2.889,11.085,0l18.057-16.671 l18.056,16.671c3.316,3.061,8.484,2.854,11.546-0.461C335.873,174.352,335.666,169.183,332.351,166.122z"/> </g> </g><g> <g> <path d="M291.803,397.068H264.17v-64.924c24.663-3.93,43.574-25.343,43.574-51.094c0-1.8-0.095-3.619-0.281-5.402l-1.781-17.193 c-0.001-0.019-0.003-0.036-0.005-0.055l-4.512-43.553c-0.431-4.164-3.94-7.328-8.127-7.328h-74.077 c-4.186,0-7.695,3.165-8.127,7.328l-6.299,60.795c-0.186,1.79-0.281,3.609-0.281,5.409c0,25.751,18.911,47.164,43.574,51.093 v64.924h-27.633c-4.513,0-8.17,3.658-8.17,8.17c0,4.512,3.657,8.17,8.17,8.17h71.606c4.513,0,8.17-3.658,8.17-8.17 C299.973,400.726,296.316,397.068,291.803,397.068z M220.596,281.05c0-1.235,0.065-2.485,0.194-3.719l5.539-53.472h59.343 l2.821,27.234h-41.364c-4.513,0-8.17,3.658-8.17,8.17c0,4.512,3.657,8.17,8.17,8.17h43.057l1.026,9.904 c0.129,1.228,0.194,2.477,0.194,3.713c0,19.521-15.882,35.404-35.404,35.404C236.48,316.454,220.596,300.572,220.596,281.05z"/> </g> </g></symbol><symbol id="waitress" viewBox="0 0 512 512"><title>waitress</title><g> <g> <path d="M386.832,179.745h-5.692c-5.185-21.868-17.148-41.14-33.541-55.467c-0.26-0.276-0.536-0.541-0.841-0.785 c-0.151-0.121-0.309-0.227-0.467-0.336c-10.194-8.625-22.028-15.368-34.964-19.684c14.319-10.404,23.652-27.269,23.652-46.281 C334.979,25.657,309.322,0,277.787,0c-31.536,0-57.191,25.657-57.191,57.192c0,19.013,9.334,35.877,23.651,46.281 c-12.938,4.317-24.773,11.061-34.969,19.688c-0.155,0.107-0.312,0.211-0.461,0.331c-0.303,0.242-0.576,0.507-0.836,0.78 c-16.396,14.328-28.36,33.602-33.547,55.472h-5.693c-22.526,0-40.851,18.325-40.851,40.851s18.326,40.851,40.851,40.851h5.692 c11.095,46.788,53.221,81.702,103.353,81.702s92.258-34.914,103.353-81.702h5.692c22.526,0,40.851-18.325,40.851-40.851 S409.357,179.745,386.832,179.745z M236.936,57.192c0-22.526,18.325-40.851,40.851-40.851s40.851,18.325,40.851,40.851 s-18.325,40.851-40.851,40.851S236.936,79.717,236.936,57.192z M277.787,114.383c19.346,0,37.269,6.166,51.951,16.606 c-13.737,13.766-32.256,21.521-51.951,21.521c-19.693,0-38.214-7.755-51.949-21.523 C240.518,120.549,258.441,114.383,277.787,114.383z M386.832,245.106h-3.143c0.206-2.697,0.312-5.422,0.312-8.17 c0-4.513-3.657-8.17-8.17-8.17s-8.17,3.657-8.17,8.17c0,49.555-40.317,89.872-89.872,89.872 c-49.556,0-89.872-40.317-89.872-89.872c0-4.513-3.658-8.17-8.17-8.17s-8.17,3.657-8.17,8.17c0,2.748,0.105,5.473,0.312,8.17 h-3.145c-13.516,0-24.511-10.996-24.511-24.511c0-13.515,10.996-24.511,24.511-24.511h3.143c-0.206,2.697-0.312,5.422-0.312,8.17 c0,4.513,3.658,8.17,8.17,8.17s8.17-3.657,8.17-8.17c0-24.329,9.732-46.416,25.489-62.613 c16.872,17.386,39.88,27.209,64.385,27.209c24.503,0,47.513-9.823,64.383-27.209c15.757,16.198,25.489,38.285,25.489,62.613 c0,4.513,3.657,8.17,8.17,8.17c4.513,0,8.17-3.657,8.17-8.17c0-2.748-0.105-5.473-0.312-8.17h3.143 c13.515,0,24.511,10.996,24.511,24.511C411.342,234.11,400.347,245.106,386.832,245.106z"/> </g> </g><g> <g> <path d="M303.535,360.514c-2.597-1.44-5.773-1.356-8.291,0.217l-17.457,10.91L260.33,360.73c-2.519-1.573-5.693-1.657-8.29-0.217 c-2.598,1.439-4.209,4.176-4.209,7.146v27.234c0,2.971,1.611,5.706,4.209,7.146c2.598,1.44,5.774,1.357,8.29-0.217l17.457-10.911 l17.457,10.911c1.321,0.826,2.825,1.242,4.33,1.242c1.363,0,2.727-0.341,3.961-1.024c2.598-1.439,4.209-4.176,4.209-7.146v-27.234 C307.745,364.69,306.134,361.955,303.535,360.514z"/> </g> </g><g> <g> <path d="M248.919,196.085H230.4c-4.512,0-8.17,3.657-8.17,8.17c0,4.513,3.658,8.17,8.17,8.17h10.814 c1.121,3.173,4.148,5.447,7.705,5.447c4.512,0,8.17-3.657,8.17-8.17v-5.447C257.089,199.742,253.431,196.085,248.919,196.085z"/> </g> </g><g> <g> <path d="M325.174,196.085h-18.519c-4.513,0-8.17,3.657-8.17,8.17v5.447c0,4.513,3.657,8.17,8.17,8.17 c3.558,0,6.584-2.274,7.705-5.447h10.814c4.513,0,8.17-3.657,8.17-8.17C333.345,199.742,329.688,196.085,325.174,196.085z"/> </g> </g><g> <g> <path d="M298.497,245.579c-4.247-1.515-8.923,0.709-10.434,4.961c-1.543,4.338-5.672,7.252-10.277,7.252 s-8.734-2.914-10.277-7.252c-1.511-4.252-6.183-6.475-10.435-4.961c-4.25,1.51-6.471,6.182-4.96,10.435 c3.853,10.837,14.169,18.118,25.673,18.118s21.82-7.281,25.672-18.118C304.971,251.762,302.75,247.09,298.497,245.579z"/> </g> </g><g> <g> <path d="M430.298,326.809h-66.147c-3.068,0-5.877,1.718-7.274,4.45l-79.09,154.629l-25.647-50.143h25.647 c4.513,0,8.17-3.657,8.17-8.17s-3.657-8.17-8.17-8.17H38.128c-4.512,0-8.17,3.657-8.17,8.17s3.658,8.17,8.17,8.17h35.404v68.085 c0,4.513,3.658,8.17,8.17,8.17h392.17c4.513,0,8.17-3.657,8.17-8.17V378.553C482.043,350.022,458.829,326.809,430.298,326.809z M149.787,495.66H89.872v-59.915h16.992c3.506,22.001,20.923,39.419,42.923,42.923V495.66z M123.515,435.745H192.4 c-3.699,15.594-17.733,27.234-34.442,27.234S127.215,451.339,123.515,435.745z M166.128,495.66v-16.992 c22.001-3.506,39.417-20.923,42.923-42.923h24.736l30.645,59.915H166.128z M389.447,495.66h-98.304l78.006-152.511h20.298V495.66z M465.702,495.66h-59.915V343.149h24.511c19.522,0,35.404,15.882,35.404,35.404V495.66z"/> </g> </g><g> <g> <path d="M229.342,391.173l-30.645-59.915c-1.397-2.732-4.206-4.45-7.274-4.45h-66.147c-28.531,0-51.745,23.213-51.745,51.745 v16.34c0,4.513,3.658,8.17,8.17,8.17s8.17-3.657,8.17-8.17v-16.34c0-19.522,15.883-35.404,35.404-35.404h24.511v51.745 c0,4.513,3.658,8.17,8.17,8.17s8.17-3.657,8.17-8.17v-51.745h20.298l28.369,55.465c1.446,2.827,4.311,4.452,7.28,4.452 c1.252,0,2.523-0.29,3.714-0.898C229.806,400.113,231.397,395.191,229.342,391.173z"/> </g> </g></symbol><symbol id="chef" viewBox="0 0 512 512"><title>chef</title><g> <g> <path d="M408.511,326.809h-47.138c-2.378-11.44-9.647-21.371-19.681-27.195c8.252-11.251,14.345-24.177,17.662-38.167h5.692 c22.526,0,40.851-18.325,40.851-40.851s-18.326-40.851-40.851-40.851h-5.705c-0.734-3.103-1.609-6.172-2.624-9.205l1.851-27.062 c24.31-8.615,41.774-31.827,41.774-59.052c0-34.539-28.099-62.638-62.638-62.638c-8.56,0-17.022,1.762-24.833,5.136 C298.961,9.945,278.19,0,256,0s-42.961,9.945-56.869,26.924c-7.811-3.375-16.273-5.136-24.833-5.136 c-34.539,0-62.638,28.099-62.638,62.638c0,27.225,17.464,50.437,41.774,59.052l1.851,27.062c-1.015,3.033-1.889,6.104-2.624,9.205 h-5.705c-22.526,0-40.851,18.325-40.851,40.851s18.325,40.851,40.851,40.851h5.692c3.317,13.991,9.411,26.917,17.663,38.168 c-10.034,5.824-17.303,15.754-19.682,27.194h-47.139c-28.531,0-51.745,23.213-51.745,51.745V503.83c0,4.513,3.657,8.17,8.17,8.17 h392.17c4.513,0,8.17-3.657,8.17-8.17V378.553C460.255,350.022,437.042,326.809,408.511,326.809z M128,84.426 c0-25.529,20.769-46.298,46.298-46.298c8.147,0,16.17,2.157,23.2,6.24c3.732,2.167,8.504,1.06,10.898-2.531 C219.05,25.871,236.846,16.34,256,16.34s36.95,9.531,47.604,25.495c2.394,3.589,7.169,4.697,10.898,2.531 c7.03-4.082,15.053-6.239,23.2-6.239c25.529,0,46.298,20.769,46.298,46.298s-20.769,46.298-46.298,46.298 c-6.604,0-12.997-1.376-19.004-4.087c-4.118-1.858-8.953-0.026-10.809,4.085c-1.856,4.112-0.027,8.952,4.085,10.809 c8.135,3.672,16.79,5.534,25.727,5.534c1.43,0,2.845-0.065,4.252-0.16l-1.129,16.501h-169.65l-1.129-16.501 c1.406,0.095,2.821,0.16,4.252,0.16c14.373,0,27.992-4.803,39.047-13.654c12.406,8.848,27.302,13.654,42.654,13.654 c10.423,0,20.516-2.155,29.997-6.403c4.117-1.844,5.96-6.679,4.115-10.797c-1.845-4.117-6.679-5.963-10.797-4.113 c-7.365,3.3-15.21,4.973-23.315,4.973c-13.834,0-27.193-5.02-37.616-14.135c-3.25-2.84-8.147-2.666-11.186,0.402 c-8.766,8.857-20.451,13.734-32.901,13.734C148.769,130.723,128,109.955,128,84.426z M313.191,495.66H133.447v-57.191 c0-4.513-3.657-8.17-8.17-8.17c-4.513,0-8.17,3.657-8.17,8.17v57.191H68.085V378.553c0-19.522,15.882-35.404,35.404-35.404h54.468 c4.513,0,8.17-3.657,8.17-8.17c0-9.948,6.169-18.876,15.156-22.629c19.204,19.028,45.61,30.799,74.716,30.799 c21.041,0,40.672-6.151,57.191-16.747V495.66z M256.001,326.809c-49.555,0-89.872-40.317-89.872-89.872 c0-4.513-3.657-8.17-8.17-8.17s-8.17,3.657-8.17,8.17c0,2.748,0.105,5.473,0.312,8.17h-3.145 c-13.515,0-24.511-10.996-24.511-24.511c0-13.515,10.996-24.511,24.511-24.511h3.157c-0.207,2.71-0.326,5.434-0.326,8.17 c0,4.513,3.657,8.17,8.17,8.17s8.17-3.657,8.17-8.17c0-8.346,1.158-16.564,3.409-24.511h172.927 c2.251,7.946,3.409,16.163,3.409,24.511c0,4.513,3.657,8.17,8.17,8.17c4.513,0,8.17-3.657,8.17-8.17 c0-2.736-0.119-5.46-0.326-8.17h3.157c13.515,0,24.511,10.996,24.511,24.511c0,13.515-10.994,24.511-24.508,24.511h-3.143 c0.206-2.697,0.312-5.422,0.312-8.17c0-4.513-3.657-8.17-8.17-8.17s-8.17,3.657-8.17,8.17 C345.873,286.491,305.556,326.809,256.001,326.809z M443.915,495.66H384v-57.191c0-4.513-3.657-8.17-8.17-8.17 c-4.513,0-8.17,3.657-8.17,8.17v57.191h-38.128V313.505c0.398-0.382,0.792-0.768,1.184-1.157 c8.986,3.753,15.156,12.68,15.156,22.629c0,4.513,3.657,8.17,8.17,8.17h54.468c19.522,0,35.404,15.882,35.404,35.404V495.66z"/> </g> </g><g> <g> <path d="M227.132,196.085h-18.519c-4.513,0-8.17,3.657-8.17,8.17c0,4.513,3.657,8.17,8.17,8.17h10.814 c1.121,3.173,4.148,5.447,7.705,5.447c4.513,0,8.17-3.657,8.17-8.17v-5.447C235.302,199.742,231.645,196.085,227.132,196.085z"/> </g> </g><g> <g> <path d="M303.387,196.085h-18.519c-4.513,0-8.17,3.657-8.17,8.17v5.447c0,4.513,3.657,8.17,8.17,8.17 c3.558,0,6.584-2.274,7.705-5.447h10.814c4.513,0,8.17-3.657,8.17-8.17C311.557,199.742,307.9,196.085,303.387,196.085z"/> </g> </g><g> <g> <path d="M276.71,245.579c-4.249-1.515-8.923,0.709-10.434,4.961c-1.543,4.338-5.672,7.252-10.277,7.252s-8.734-2.914-10.277-7.252 c-1.511-4.252-6.186-6.475-10.434-4.961c-4.251,1.51-6.472,6.182-4.96,10.435c3.852,10.837,14.169,18.118,25.672,18.118 s21.82-7.281,25.672-18.118C283.184,251.762,280.963,247.09,276.71,245.579z"/> </g> </g><g> <g> <circle cx="280.511" cy="462.979" r="8.17"/> </g> </g><g> <g> <circle cx="280.511" cy="397.617" r="8.17"/> </g> </g></symbol><symbol id="instagram-logo" viewBox="0 0 512 512"><title>instagram-logo</title><path d="m474.5 0h-437c-20.679688 0-37.5 16.820312-37.5 37.5v114.453125c0 4.140625 3.359375 7.5 7.5 7.5s7.5-3.359375 7.5-7.5v-114.453125c0-12.40625 10.09375-22.5 22.5-22.5h437c12.40625 0 22.5 10.09375 22.5 22.5v437c0 12.40625-10.09375 22.5-22.5 22.5h-437c-12.40625 0-22.5-10.09375-22.5-22.5v-288.023438c0-4.140624-3.359375-7.5-7.5-7.5s-7.5 3.359376-7.5 7.5v288.023438c0 20.679688 16.820312 37.5 37.5 37.5h437c20.679688 0 37.5-16.820312 37.5-37.5v-437c0-20.679688-16.820312-37.5-37.5-37.5zm0 0"/><path d="m436.84375 232.105469c4.144531 0 7.5-3.359375 7.5-7.5v-55.191407c0-56.109374-45.648438-101.757812-101.757812-101.757812h-173.171876c-56.109374 0-101.757812 45.648438-101.757812 101.757812v173.171876c0 56.109374 45.648438 101.761718 101.757812 101.761718h173.171876c56.109374 0 101.757812-45.652344 101.757812-101.761718v-83.457032c0-4.144531-3.355469-7.5-7.5-7.5-4.140625 0-7.5 3.355469-7.5 7.5v83.457032c0 47.839843-38.917969 86.761718-86.757812 86.761718h-173.171876c-47.839843 0-86.757812-38.921875-86.757812-86.761718v-173.171876c0-47.839843 38.917969-86.757812 86.757812-86.757812h173.171876c47.839843 0 86.757812 38.917969 86.757812 86.757812v55.1875c0 4.144532 3.359375 7.503907 7.5 7.503907zm0 0"/><path d="m277.851562 403.34375h64.734376c33.503906 0 60.757812-27.253906 60.757812-60.757812v-173.171876c0-33.503906-27.253906-60.757812-60.757812-60.757812h-173.171876c-33.503906 0-60.757812 27.253906-60.757812 60.757812v173.171876c0 33.503906 27.253906 60.757812 60.757812 60.757812h73.914063c4.144531 0 7.5-3.355469 7.5-7.5 0-4.140625-3.355469-7.5-7.5-7.5h-73.914063c-25.230468 0-45.757812-20.527344-45.757812-45.757812v-173.171876c0-25.230468 20.527344-45.757812 45.757812-45.757812h173.171876c25.230468 0 45.757812 20.527344 45.757812 45.757812v173.171876c0 25.230468-20.527344 45.757812-45.757812 45.757812h-64.734376c-4.140624 0-7.5 3.359375-7.5 7.5 0 4.144531 3.359376 7.5 7.5 7.5zm0 0"/><path d="m256 164.527344c-50.4375 0-91.472656 41.035156-91.472656 91.472656s41.035156 91.472656 91.472656 91.472656 91.472656-41.035156 91.472656-91.472656-41.035156-91.472656-91.472656-91.472656zm0 167.945312c-42.167969 0-76.472656-34.304687-76.472656-76.472656s34.304687-76.472656 76.472656-76.472656 76.472656 34.304687 76.472656 76.472656-34.304687 76.472656-76.472656 76.472656zm0 0"/><path d="m256 204.335938c-28.488281 0-51.664062 23.175781-51.664062 51.664062s23.175781 51.667969 51.664062 51.667969 51.664062-23.179688 51.664062-51.667969-23.175781-51.664062-51.664062-51.664062zm0 88.328124c-20.21875 0-36.664062-16.445312-36.664062-36.664062s16.445312-36.664062 36.664062-36.664062 36.664062 16.445312 36.664062 36.664062-16.445312 36.664062-36.664062 36.664062zm0 0"/><path d="m370.328125 164c0-13.414062-10.914063-24.328125-24.328125-24.328125s-24.328125 10.914063-24.328125 24.328125 10.914063 24.328125 24.328125 24.328125 24.328125-10.914063 24.328125-24.328125zm-33.65625 0c0-5.144531 4.183594-9.328125 9.328125-9.328125s9.328125 4.183594 9.328125 9.328125-4.1875 9.328125-9.328125 9.328125c-5.144531 0-9.328125-4.183594-9.328125-9.328125zm0 0"/></symbol><symbol id="facebook-logo" viewBox="0 0 512 512"><title>facebook-logo</title><path d="m328.398438 175.140625h25.28125c10.398437 0 18.859374-8.460937 18.859374-18.859375v-47.707031c0-10.394531-8.460937-18.855469-18.859374-18.855469h-32.234376c-26.691406 0-52.332031 9.808594-72.1875 27.625-3.085937 2.765625-3.34375 7.503906-.578124 10.589844 2.765624 3.082031 7.507812 3.339844 10.59375.574218 17.101562-15.339843 39.183593-23.789062 62.171874-23.789062h32.234376c2.128906 0 3.859374 1.730469 3.859374 3.855469v47.707031c0 2.125-1.730468 3.859375-3.859374 3.859375h-25.28125c-24.640626 0-44.6875 20.042969-44.6875 44.683594v42.085937c0 4.140625 3.355468 7.5 7.5 7.5h62.46875c2.128906 0 3.859374 1.730469 3.859374 3.855469v47.707031c0 2.125-1.730468 3.855469-3.859374 3.855469h-62.46875c-4.144532 0-7.5 3.359375-7.5 7.5v74.613281c0 4.144532 3.355468 7.5 7.5 7.5 4.140624 0 7.5-3.355468 7.5-7.5v-67.113281h54.96875c10.398437 0 18.859374-8.457031 18.859374-18.855469v-47.707031c0-10.398437-8.460937-18.855469-18.859374-18.855469h-54.96875v-34.585937c0-16.367188 13.316406-29.683594 29.6875-29.683594zm0 0"/><path d="m474.5 0h-437c-20.679688 0-37.5 16.820312-37.5 37.5v194.238281c0 4.144531 3.359375 7.5 7.5 7.5s7.5-3.355469 7.5-7.5v-194.238281c0-12.40625 10.09375-22.5 22.5-22.5h437c12.40625 0 22.5 10.09375 22.5 22.5v437c0 12.40625-10.09375 22.5-22.5 22.5h-175.789062v-70.535156c0-4.144532-3.359376-7.5-7.5-7.5-4.144532 0-7.5 3.355468-7.5 7.5v70.535156h-55.421876v-179.671875c0-4.140625-3.355468-7.5-7.5-7.5h-62.46875c-2.128906 0-3.859374-1.730469-3.859374-3.859375v-47.703125c0-2.128906 1.730468-3.859375 3.859374-3.859375h62.46875c4.144532 0 7.5-3.355469 7.5-7.5v-49.03125c0-15.382812 3.828126-30.625 11.070313-44.082031 1.964844-3.648438.601563-8.195313-3.046875-10.160157-3.648438-1.960937-8.195312-.597656-10.160156 3.050782-8.414063 15.632812-12.863282 33.335937-12.863282 51.1875v41.535156h-54.96875c-10.398437 0-18.859374 8.457031-18.859374 18.859375v47.703125c0 10.398438 8.460937 18.859375 18.859374 18.859375h54.96875v172.171875h-175.789062c-12.40625 0-22.5-10.09375-22.5-22.5v-208.238281c0-4.144531-3.359375-7.5-7.5-7.5s-7.5 3.355469-7.5 7.5v208.238281c0 20.679688 16.820312 37.5 37.5 37.5h437c20.679688 0 37.5-16.820312 37.5-37.5v-437c0-20.679688-16.820312-37.5-37.5-37.5zm0 0"/></symbol><symbol id="twitter-logo" viewBox="0 0 512 512"><title>twitter-logo</title><path d="m248.28125 361.25c27.578125 0 55.199219-9.066406 78.125-27.304688 3.238281-2.578124 3.777344-7.296874 1.199219-10.539062-2.582031-3.238281-7.296875-3.777344-10.539063-1.199219-41.792968 33.253907-101.320312 31.871094-141.5625-3.3125l9.085938-9.085937c10.453125 2.015625 21.335937 3.125 32.398437 3.230468.582031.003907 1.164063.007813 1.746094.007813 30.074219 0 59.367187-7.359375 82.65625-20.789063l.464844-.269531c23.695312-13.871093 33.609375-42.644531 23.570312-68.417969l-.195312-.503906c-.472657-1.214844-.972657-2.410156-1.484375-3.601562.371094.007812.738281.03125 1.109375.03125 11.386719 0 22.097656-2.9375 31.421875-8.085938 6.613281 29.957032.464844 62-17.0625 87.199219-2.363282 3.398437-1.527344 8.074219 1.875 10.441406 1.304687.90625 2.796875 1.339844 4.277344 1.339844 2.371093 0 4.707031-1.121094 6.164062-3.214844 21.132812-30.390625 27.710938-69.527343 17.835938-105.28125 8.601562-8.042969 15.023437-18.375 18.296874-30.015625 11.828126-3.367187 22.019532-8.660156 30.285157-15.816406 4.339843-3.757812 5.964843-9.710938 4.144531-15.160156-1.832031-5.472656-6.730469-9.261719-12.484375-9.65625l-13.019531-.890625c4.773437-6.480469 8.382812-13.324219 10.773437-20.46875 1.816407-5.4375.1875-11.382813-4.160156-15.144531-4.359375-3.777344-10.507813-4.542969-15.65625-1.953126l-21.566406 10.851563c-11.230469-9.144531-25.542969-14.636719-41.125-14.636719-7.875 0-15.59375 1.398438-22.941407 4.160156-3.878906 1.457032-5.839843 5.78125-4.382812 9.65625 1.457031 3.878907 5.78125 5.839844 9.660156 4.382813 5.652344-2.125 11.597656-3.199219 17.667969-3.199219 27.707031 0 50.246094 22.539063 50.246094 50.246094s-22.542969 50.246094-50.246094 50.246094c-3.242187 0-6.46875-.324219-9.625-.9375-8.429687-12.972656-19.613281-23.941406-33.050781-32.289063-1.859375-1.15625-3.753906-2.234375-5.667969-3.265625-1.261719-4.453125-1.90625-9.070312-1.90625-13.753906 0-10.257812 3.082031-20.128906 8.90625-28.546875 2.355469-3.40625 1.507813-8.078125-1.898437-10.4375-3.40625-2.355469-8.078126-1.503906-10.4375 1.898437-3.785157 5.472657-6.675782 11.410157-8.621094 17.652344-.71875-.15625-1.4375-.328125-2.15625-.464844-41.515625-7.972656-80.621094-23.285156-100.230469-31.703124-4.957031-2.128907-10.65625-1.359376-14.878906 2.003906-4.214844 3.363281-6.230469 8.738281-5.265625 14.035156 2.648437 14.476562 7.007812 26.757812 13.199218 37.1875-19.328124-1.070312-35.886718-2.96875-47.015624-4.484375-5.484376-.746094-10.917969 1.574219-14.171876 6.0625-3.246093 4.472656-3.765624 10.335937-1.363281 15.300781 8.078125 16.679688 17.804688 29.5625 29.503907 39l-6.75 2.207032c-4.917969 1.605468-8.609376 5.558593-9.875 10.574218-1.273438 5.035156.105468 10.285156 3.6875 14.050782 9.601562 10.09375 20.738281 17.992187 33.238281 23.597656l-5.265625 3.039062c-4.613282 2.65625-7.414063 7.421875-7.5 12.742188-.085938 5.335937 2.566406 10.199218 7.101562 13.015625 9.792969 6.074219 20.863282 10.992187 32.765625 14.628906l-2.683593 2.679687c-2.921876 2.925782-4.519532 6.972657-4.382813 11.105469.023437.71875.121094 1.429688.246094 2.128907l-50.042969 50.042968c-3.390625 3.390625-4.933594 8.058594-4.230469 12.804688s3.53125 8.765625 7.765625 11.027344l48.285156 25.824218c2.207032 1.179688 4.632813 1.777344 7.070313 1.777344 1.886719 0 3.777344-.359375 5.578125-1.078125 4.125-1.652344 7.285156-5.019531 8.671875-9.238281l19.636719-59.6875c14.386718 5.492187 29.578125 8.257812 44.785156 8.253906zm141.796875-205.957031c.003906-.347657.023437-.691407.023437-1.042969 0-3.171875-.238281-6.292969-.679687-9.347656l17.085937 1.167968c-4.71875 3.769532-10.226562 6.839844-16.429687 9.222657zm2.339844-48.164063c-1.75 4.585938-4.746094 10.460938-9.824219 16.785156-1.660156-3.148437-3.566406-6.148437-5.703125-8.972656zm-237.5 9.585938c20.378906 8.714844 60.214843 24.21875 102.652343 32.367187.738282.140625 1.472657.3125 2.207032.476563-.109375 1.554687-.167969 3.121094-.167969 4.691406 0 2.179688.117187 4.347656.332031 6.503906-13.777344-4.679687-28.410156-6.519531-43.269531-5.328125-15.238281 1.214844-30.425781 1.476563-44.699219 1.175781-8.335937-10.214843-13.929687-23.289062-17.054687-39.886718zm4.339843 151.953125c7.746094 2.054687 28.378907 6.96875 48.609376 6.96875 2.179687 0 4.355468-.058594 6.507812-.183594 4.132812-.238281 7.292969-3.78125 7.058594-7.917969-.238282-4.136718-3.785156-7.292968-7.917969-7.058594-24.179687 1.390626-52.851563-6.976562-53.15625-7.066406-.027344-.007812-.054687-.011718-.082031-.019531-.019532-.003906-.035156-.011719-.050782-.019531-16.382812-4.511719-30.550781-12.964844-42.136718-25.152344l18.527344-6.054688c8.316406 4.0625 32.859374 14.8125 59.679687 14.8125 1.519531 0 3.050781-.035156 4.582031-.105468 4.136719-.195313 7.335938-3.707032 7.140625-7.847656-.195312-4.136719-3.6875-7.332032-7.847656-7.136719-29.796875 1.402343-58.996094-14.21875-59.34375-14.40625-.011719-.007813-.027344-.011719-.042969-.019531-.011718-.007813-.019531-.015626-.027344-.019532-15.027343-7.960937-26.980468-21.425781-36.5625-41.1875 22.832032 3.109375 67.945313 7.777344 113.671876 4.121094 19.96875-1.59375 39.472656 3.117188 56.402343 13.632812 16.960938 10.539063 29.75 25.925782 36.984375 44.5l.195313.503907c7.347656 18.863281.125 39.90625-17.175781 50.03125l-.367188.214843c-44.1875 25.480469-109.179688 25.039063-151.199219-1.046874zm10.351563 139.324219-21.316406-11.398438 21.316406-26.871094c2.574219-3.242187 2.027344-7.960937-1.214844-10.535156-3.25-2.574219-7.964843-2.03125-10.539062 1.214844l-23.003907 29-13.527343-7.230469 48.484375-48.484375c6.308594 5.054688 12.992187 9.421875 19.945312 13.089844zm0 0"/><path d="m332.597656 149.0625c4.125 0 7.476563-3.332031 7.5-7.460938.019532-4.140624-3.316406-7.519531-7.460937-7.539062h-.089844c-.015625 0-.027344 0-.042969 0-4.121094 0-7.429687 3.332031-7.453125 7.460938-.019531 4.140624 3.363281 7.515624 7.507813 7.539062zm0 0"/><path d="m474.5 0h-437c-20.679688 0-37.5 16.820312-37.5 37.5v437c0 20.679688 16.820312 37.5 37.5 37.5h127.886719c4.140625 0 7.5-3.359375 7.5-7.5s-3.359375-7.5-7.5-7.5h-127.886719c-12.40625 0-22.5-10.09375-22.5-22.5v-437c0-12.40625 10.09375-22.5 22.5-22.5h437c12.40625 0 22.5 10.09375 22.5 22.5v437c0 12.40625-10.09375 22.5-22.5 22.5h-270.976562c-4.140626 0-7.5 3.359375-7.5 7.5s3.359374 7.5 7.5 7.5h270.976562c20.679688 0 37.5-16.820312 37.5-37.5v-437c0-20.679688-16.820312-37.5-37.5-37.5zm0 0"/></symbol><symbol id="tik-tok" viewBox="0 0 512 512"><title>tik-tok</title><g><path d="m212.7 435.6c-30.4 0-59-11.8-80.6-33.4-21.5-21.5-33.4-50.1-33.4-80.6 0-30.4 11.9-59 33.4-80.6 21.5-21.5 50.1-33.4 80.6-33.4 5.7 0 11.5.4 17.1 1.3 3.7.6 6.4 3.7 6.4 7.4v56.9c0 2.4-1.2 4.7-3.1 6.1-2 1.4-4.5 1.8-6.8 1-4.4-1.5-9-2.2-13.6-2.2-23.9 0-43.4 19.5-43.4 43.4s19.5 43.4 43.4 43.4c4.6 0 9.2-.7 13.6-2.2 17.7-5.9 29.6-22.3 29.7-41v-238c0-4.1 3.4-7.5 7.5-7.5h55.6c4.1 0 7.5 3.4 7.5 7.5 0 43.6 35.5 79 79.1 79 4.1 0 7.5 3.4 7.5 7.5v55.8c0 4.1-3.4 7.5-7.5 7.5-20.2 0-39.8-4-58.3-11.8-7.2-3.1-14.2-6.7-20.8-10.8v111.3c-.1 30.3-12 58.7-33.4 80.1-17.4 17.4-39.3 28.5-63.4 32.1-5.6.8-11.4 1.2-17.1 1.2zm0-212.8c-26.4 0-51.3 10.3-69.9 29-18.7 18.7-29 43.5-29 69.9s10.3 51.3 29 69.9c18.7 18.7 43.5 29 69.9 29 5 0 10-.4 14.9-1.1 20.9-3.1 40-12.8 55.1-27.9 18.6-18.6 28.9-43.3 29-69.5v-125.6c0-2.9 1.6-5.5 4.2-6.7 2.6-1.3 5.6-1 7.9.8 9.1 7 19 12.8 29.6 17.3 14.3 6.1 29.4 9.5 44.9 10.4v-40.6c-45.9-3.6-82.6-40.4-86.3-86.2h-41v230.5c-.1 25.1-16.2 47.3-40 55.2-6 2-12.1 3-18.4 3-32.2 0-58.4-26.2-58.4-58.4s26.2-58.4 58.4-58.4c2.9 0 5.7.2 8.5.6v-40.8c-2.7-.3-5.6-.4-8.4-.4z"/></g><path d="m15 96v378.5c0 12.4 10.1 22.5 22.5 22.5h437c12.4 0 22.5-10.1 22.5-22.5v-107.7c0-4.1 3.4-7.5 7.5-7.5 4.1 0 7.5 3.4 7.5 7.5v107.7c0 20.7-16.8 37.5-37.5 37.5h-437c-20.7 0-37.5-16.8-37.5-37.5v-378.5c0-4.1 3.3-7.4 7.3-7.5 4.3-.1 7.7 3.3 7.7 7.5z"/><path d="m0 46.3v-8.8c0-20.7 16.8-37.5 37.5-37.5h437c20.7 0 37.5 16.8 37.5 37.5v279.8c0 4.1-3.4 7.5-7.5 7.5-4.1 0-7.5-3.4-7.5-7.5v-279.8c0-12.4-10.1-22.5-22.5-22.5h-437c-12.4 0-22.5 10.1-22.5 22.5v8.8c0 4.1-3.4 7.5-7.5 7.5-4.1 0-7.5-3.4-7.5-7.5z"/></symbol></svg>