<svg xmlns="http://www.w3.org/2000/svg" style="display: none;"><symbol id="facebook-sketched-social-letter-logo-outline" viewBox="0 0 53.907 53.907"><title>facebook-sketched-social-letter-logo-outline</title><path d="M21.406,33.58c0.557-0.526,1.009-0.968,1.008-0.986c0-0.018-0.452,0.408-1.009,0.953 C20.848,34.09,20.849,34.106,21.406,33.58z"/><path d="M15.893,27.382c3.693,0,2.512,6.861,2.512,8.687c0,3.688,0,7.376,0,11.063c0,1.399-0.653,5.569,1.369,6.116 c2.498,0.676,12.282,1.868,12.282-2.726c0-6.08,0-12.161,0-18.241c0-0.979,0-1.958,0-2.938c0-2.573,2.321-1.961,3.873-1.961 c2.634,0,4.12-0.933,4.443-3.557c0.292-2.363,1.536-6.163-2.111-6.163c-1.283,0-2.566,0-3.851,0c-2.943,0-3.103-7.078-1.046-7.078 c1.845,0,4.559,0.421,6.235-0.695c2.273-1.514,1.689-6.006,1.085-8.242c-0.707-2.612-8.687-1.353-10.665-1.289 c-4.589,0.147-9.163,2.39-10.905,6.614c-0.421,1.021-0.558,1.937-0.561,1.963c-0.003,0.023-0.011,0.035-0.012,0.047 c-0.164,2.158,0.81,8.49-2.064,8.681c-2.376,0.158-3.786,1.501-3.786,3.887C12.691,24.187,12.291,27.382,15.893,27.382z M21.047,6.594c0.855-1.998,2.341-3.263,4.152-4.066c1.01-0.448,1.254-0.02,0.475,0.762c-1.263,1.266-2.525,2.532-3.788,3.799 C21.106,7.872,20.613,7.61,21.047,6.594z M15.543,19.396c0.444-0.453,0.889-0.86,0.995-0.907c0.106-0.046-0.271,0.397-0.843,0.987 c-0.572,0.59-1.023,0.994-1,0.903C14.717,20.288,15.099,19.849,15.543,19.396z M14.622,21.033c0-0.079,0.004-0.154,0.009-0.227 c0.01-0.125,0.514-0.721,1.113-1.332c0.6-0.611,1.696-1.318,2.435-1.615c0.739-0.296,1.147-0.475,0.946-0.289 c-0.201,0.186-0.497,0.391-0.617,0.515c-0.119,0.123,0.199-0.015,0.761-0.164c0.32-0.085,0.665-0.141,1.037-0.166 c0.091-0.006,0.179-0.019,0.262-0.038c0.143-0.033,0.466-0.288,0.727-0.545c0.261-0.257,0.743-1.003,0.89-1.721 c0.146-0.719-0.293-0.84-0.867-0.252c-0.573,0.588-0.87,0.681-0.778,0.175c0.092-0.505,0.502-1.329,0.986-1.827 c0.484-0.498,0.877-0.922,0.877-0.947c0-0.025-0.391,0.36-0.875,0.859c-0.483,0.499-0.873,0.868-0.87,0.824 s0.391-0.469,0.871-0.945s0.871-1.224,0.862-1.677c-0.009-0.453-0.375-0.494-0.813-0.09c-0.267,0.246-0.531,0.489-0.792,0.73 c-0.022,0.022-0.045,0.044-0.068,0.067c-0.037,0.037-0.102-0.619-0.16-1.463c-0.057-0.844,0.501-2.122,1.229-2.856 c0.729-0.733,1.681-2.157,2.346-3.039c0.582-0.771,1.276-1.446,2.052-2.023c0.886-0.659,1.773-1.119,1.862-1.207 c0.089-0.088,1.042-0.333,2.14-0.447c1.837-0.191,3.726-0.204,5.475-0.204c4.568,0,4.92,8.63,0.624,8.63 c-1.624,0-3.993-0.225-5.215,1.174c-1.626,1.861-1.31,5.474,0.368,7.152c2.684,2.684,8.114-2.769,7.215,4.513 c-0.236,1.914,0.011,3.959-2.559,3.959c-0.854,0-1.846-0.141-2.688,0.087c-5.215,1.41-3.286,8.981-3.286,13.209 c0,3.287,0,6.574,0,9.862c0,4.023-3.382,3.062-6.463,3.062c-0.351,0-0.664-0.029-0.945-0.083c-0.515-0.099-0.775-0.427-0.625-0.58 c0.149-0.153,0.131-0.168-0.033-0.023c-0.164,0.146-0.555,0.132-0.812-0.116c-0.257-0.247-0.213-0.685,0.016-0.903 c0.138-0.132,0.276-0.266,0.414-0.398c0.079-0.081,0.157-0.161,0.234-0.241c0.129-0.133,0.217-0.794,0.245-1.476 c0.027-0.682-0.357-0.809-0.876-0.285c-0.52,0.523-0.989,0.275-0.972-0.555c0.01-0.515,0.031-1.025,0.031-1.502 c0-0.049,0-0.099,0-0.147c0-0.082,0.424-0.601,0.949-1.16c0.524-0.559,0.95-1.646,0.95-2.425s-0.423-0.994-0.948-0.48 c-0.525,0.513-0.951,0.031-0.951-1.073c0-0.086,0-0.172,0-0.258c0-1.104,0.424-2.425,0.949-2.951 c0.524-0.526,0.95-1.179,0.95-1.458c0-0.168,0-0.336,0-0.504c0-0.027,0.001-0.06,0.003-0.091c0.002-0.051-0.424,0.301-0.95,0.787 c-0.526,0.484-0.951,0.192-0.951-0.654c0-0.511,0-1.023,0-1.533c0-0.647,0.021-1.302,0.036-1.958 c0.026-1.082,0.367-2.292,0.811-2.703c0.443-0.411,0.712-1.03,0.533-1.35c-0.179-0.321-0.631-0.312-0.93-0.034 c-0.298,0.277-0.576,0.226-0.64-0.112c-0.039-0.204-0.084-0.405-0.139-0.606c-0.015-0.055-0.035-0.105-0.058-0.154 c-0.039-0.082-0.055-0.168-0.025-0.195c0.029-0.026,0.012-0.054-0.038-0.06c-0.05-0.006-0.54-0.532-1.313-0.75 c-0.505-0.143-1.042-0.188-1.438-0.188c-0.015,0-0.029-0.001-0.043-0.003c-0.023-0.002-0.01-0.036,0.028-0.076 c0.039-0.04-0.055-0.242-0.168-0.474s-0.346-0.261-0.559-0.048c-0.213,0.212-1.086,0.085-1.446-0.686 c-0.36-0.771,0.079-1.915,0.609-2.439c0.531-0.523,0.963-1.003,0.963-1.069c0.001-0.04,0.001-0.081,0.001-0.12 c0-0.359,0.035-0.693,0.102-1.002c0.116-0.544-0.201-0.402-0.855,0.273c-0.654,0.676-1.173,0.978-1.16,0.672 C14.616,21.385,14.622,21.199,14.622,21.033z"/></symbol><symbol id="twitter-sketched-logo-outline" viewBox="0 0 54.422 54.422"><title>twitter-sketched-logo-outline</title><path d="M52.691,25.196c-0.971-0.085-0.957-0.452-0.125-1.178c0.86-0.748,1.64-1.601,1.773-1.825 c0.02-0.037,0.025-0.068,0.018-0.099c-0.016-0.055-0.112-0.131-0.174-0.198c-0.035-0.041-0.072-0.081-0.109-0.122 c-0.252-0.282-1.189,0.056-1.457,0.144c-4.965,1.634-4.391-1.259-6.135-4.141c-1.232-2.034-3.808-4.053-6.14-4.603 c-0.366-0.086-0.646-0.151-0.877-0.203c-0.485-0.107-0.871-0.193-0.854-0.237c0.016-0.043,0.043-0.081,0.063-0.086 c0.011-0.003,0.022-0.005,0.037-0.008c0.407-0.093,0.824-0.2,1.229-0.332c0.414-0.139,0.769-0.298,1.055-0.487 c0.133-0.087,0.221-0.183,0.263-0.287c0.081-0.202,0.005-0.452,0.04-0.54c0.021-0.052,0.041-0.105,0.061-0.162 c0.051-0.152-0.058-0.185-0.184-0.225c-0.443-0.138-0.888-0.201-1.332-0.209c-0.747-0.014-1.291,0-1.265-0.164 c0.014-0.09,0.021-0.188,0.018-0.298c-0.004-0.14-0.331-0.139-0.395-0.145c-0.567-0.05-1.106-0.004-1.626,0.11 c-0.883,0.195-1.926,0.395-2.398,0.501c-0.333,0.076-0.658,0.207-0.826,0.287c-3.5,1.66-4.838,5.089-6.598,8.219 c-0.541,0.963-1.424,1.465-1.866,1.131c-0.289-0.219-0.56-0.435-0.8-0.608c-1.913-1.386-4.546-2.229-6.693-3.17 c-2.464-1.08-5.374-2.599-8.084-2.871c-0.439-0.044-2.037,0.096-2.07,0.734c-0.065,1.22,0.4,1.979,0.889,3.057 c0.158,0.349,0.71,0.83,1.29,1.314c0.786,0.655,0.458,1.279-0.091,2.058c-0.265,0.376-0.37,0.903-0.24,1.661 c0.249,1.446,3.975,3.184,3.961,3.188c-0.332,0.118-2.061,0.765-1.938,1.477c0.237,1.381,1.715,2.427,3.033,2.775 c2.578,0.683,2.52-0.573,1.367,1.563c-0.653,1.211,0.402,2.592,1.566,2.812c0.338,0.064,0.628,0.138,0.91,0.192 c0.505,0.099,0.189,0.594-0.78,1.125c-3.756,2.058-7.419,2.491-10.992,1.304c-1.048-0.349-2.308-1.062-2.899-1.384 c-0.357-0.195-0.72-0.378-1.09-0.55c-0.337-0.165-2.46,0.315-2.206,0.685c6.505,9.458,21.402,10.968,31.52,7.646 c4.812-1.58,9.662-3.939,12.986-7.902c1.851-2.205,3.07-6.374,6.019-7.164c1.397-0.375,2.724-1.006,3.769-2.01 c0.097-0.093,0.162-0.183,0.045-0.286C54.031,25.391,53.386,25.257,52.691,25.196z M37.521,12.713 c0.207,0.007,0.207,0.014,0,0.004C37.312,12.708,37.312,12.706,37.521,12.713z M48.732,27.738 c-3.019,1.322-3.513,3.872-5.355,6.528c-5.389,7.758-17.181,10.993-27.248,8.97c-1.083-0.218-1.333-1.041-0.578-1.753 c0.755-0.713,1.352-1.3,1.334-1.312c-0.017-0.011-0.631,0.566-1.371,1.289c-0.74,0.725-1.835,1.177-2.435,0.979 c-0.6-0.197-0.725-0.735-0.29-1.176s0.41-0.451-0.057-0.022c-0.466,0.429-1.687,0.468-2.684-0.008 c-1.451-0.693-2.81-1.527-4.046-2.507c-0.865-0.687-1.446-1.304-1.38-1.283s0.185,0.077,0.267,0.129 c0.082,0.051,0.166,0.08,0.186,0.062c0.02-0.02,0.887,0.252,1.973,0.454c0.472,0.088,0.948,0.152,1.432,0.19 c1.101,0.086,1.703,0.272,1.339,0.61c-0.364,0.338-0.271,0.72,0.213,0.818c0.485,0.101,1.371-0.292,1.974-0.846 c0.604-0.553,1.971-1.173,3.037-1.462c2.507-0.68,5.227-1.812,5.889-3.755c0.104-0.307-0.478-0.239-0.622-0.233 c-0.37-0.007-0.692-0.042-0.969-0.101c-0.527-0.113-0.608-0.641-0.262-0.961c0.346-0.321,0.528-0.595,0.405-0.61 c-0.076-0.01-0.151-0.021-0.223-0.035c-0.205-0.038-0.397-0.085-0.581-0.141c-0.317-0.096-0.443-0.595-0.203-1.042 c0.24-0.447,0.57-0.83,0.661-0.914c0.061-0.055,0.106-0.122,0.089-0.193c-0.009-0.036-0.018-0.071-0.027-0.108 c-0.033-0.137-0.303-0.148-0.394-0.145c-1.059,0.038-1.934-0.05-2.616-0.236c-1.065-0.292-1.317-1.387-0.956-1.758 s0.447-0.771,0.205-0.912c-0.242-0.142-0.474-0.227-0.532-0.167c-0.059,0.058,0.071-0.187,0.349-0.498 c0.155-0.174,0.333-0.353,0.538-0.532c0.062-0.055,0.196-0.222,0.046-0.286c-0.205-0.086-0.735-0.4-1.37-0.825 c-0.735-0.491-1.283-1.144-1.141-1.351c0.094-0.136,0.219-0.227,0.365-0.253c0.066-0.011,0.132-0.024,0.199-0.036 c0.11-0.021,0.378-0.213,0.597-0.429c0.219-0.216,0.292-0.466,0.163-0.558c-0.073-0.052-0.151-0.106-0.233-0.165 c-0.13-0.092-0.253-0.185-0.372-0.279c-0.201-0.16-0.704,0.058-1.131,0.499c-0.427,0.44-0.976,0.619-1.203,0.375 c-0.228-0.244-0.136-0.717,0.165-1.024c0.302-0.308,0.803-0.603,1.082-0.748c0.197-0.103,0.339-0.237,0.353-0.414 c0.056-0.679-0.68-1.391-1.52-2.204c-0.793-0.769-1.206-1.619-1.003-1.823c0.203-0.205,0.97-0.161,1.699,0.132 s1.239,0.625,1.152,0.71c-0.087,0.085,0.203,0.284,0.646,0.446c0.443,0.161,0.848,0.25,0.904,0.192 c0.056-0.057,0.136-0.086,0.178-0.064c0.042,0.021,0.034,0.081-0.019,0.135c-0.053,0.054-0.081,0.102-0.064,0.108 c0.017,0.008,0.072-0.03,0.124-0.084c0.051-0.052,0.343,0.025,0.652,0.175c0.308,0.148,0.533,0.294,0.504,0.322 c-0.028,0.029,0.226,0.16,0.566,0.293c0.34,0.135,0.577,0.281,0.528,0.327c-0.048,0.045-0.273,0.418-0.493,0.836 c-0.132,0.25-0.263,0.503-0.392,0.76c-0.052,0.104-0.1,0.21-0.148,0.314c-0.079,0.175,0.329-0.118,0.911-0.653 c0.582-0.534,1.194-0.899,1.37-0.814c0.108,0.053,0.216,0.104,0.32,0.152c0.159,0.073,0.319,0.158,0.48,0.25 c0.261,0.147,0.037,0.683-0.494,1.181c-0.53,0.498-1.144,1.237-1.365,1.655c-0.132,0.25-0.263,0.503-0.391,0.759 c-0.052,0.104-0.1,0.21-0.148,0.314c-0.079,0.176,0.517-0.291,1.33-1.039c0.261-0.239,0.532-0.489,0.815-0.751 c0.812-0.748,2.194-0.826,3.133-0.246c0.157,0.098,0.314,0.19,0.472,0.279c0.963,0.54,1.405,1.133,0.847,1.65 c-0.558,0.518-0.786,1.13-0.509,1.368c0.147,0.126,0.317,0.271,0.501,0.431c0.028,0.023,0.056,0.044,0.085,0.062 c0.049,0.031,0.539-0.365,1.092-0.881c0.553-0.515,1.091-1.128,1.201-1.369c0.066-0.145,0.133-0.288,0.204-0.433 c0.037-0.073,0.075-0.144,0.112-0.215c0.063-0.118,0.145-0.229,0.183-0.247c0.023-0.011,0.047-0.022,0.068-0.035 c2.753-1.67,3.198-5.489,5.108-8.241c0.63-0.906,1.732-1.492,2.208-1.613c0.397-0.103,0.765-0.232,0.843-0.278 c1.167-0.682,0.053,0.132-0.178,0.239c-0.907,0.419-0.201,0.651,0.433,0.531c3.56-0.676,1.213-0.066-0.25,1.048 c-0.302,0.229,0.083,0.356,0.285,0.353c0.269-0.005,0.53,0,0.788,0.014c0.436,0.025,0.388,0.449-0.102,0.91 c-0.492,0.461-1.074,1.169-1.293,1.587c-0.133,0.25-0.264,0.503-0.393,0.76c-0.053,0.104-0.1,0.209-0.146,0.313 c-0.08,0.175,0.516-0.29,1.328-1.038c0.311-0.285,0.637-0.585,0.978-0.898c0.812-0.749,1.753-1.288,2.094-1.178 c0.343,0.11,0.593,0.238,0.572,0.259c-0.022,0.02-0.224,0.371-0.444,0.789c-0.132,0.25-0.263,0.504-0.393,0.761 c-0.051,0.104-0.1,0.21-0.147,0.314c-0.079,0.175,0.302-0.093,0.853-0.599c0.55-0.505,1.256-0.781,1.563-0.592 c0.31,0.188,0.524,0.382,0.496,0.409c-0.028,0.026,0.006,0.058,0.075,0.071c0.07,0.016,0.863,0.544,1.638,1.332 c0.925,0.94,1.722,2.029,2.431,3.202c1.006,1.659,0.26,2.27,1.812,3.125c0.784,0.434,2.894,0.111,3.519-0.003 c5.168-0.95-0.359,1.09-2.459,1.963c-0.113,0.046-0.682,0.324-0.422,0.513c0.148,0.109,0.299,0.218,0.447,0.326 c0.03,0.022,0.08,0.026,0.12,0.039c0.039,0.011,0.071,0.02,0.099,0.025c0.055,0.012,0.775,0.143,1.616,0.218 c0.394,0.035,0.815,0.054,1.526,0.084C52.248,26.338,49.186,27.539,48.732,27.738z"/></symbol><symbol id="viber-logo-sketched-variant" viewBox="0 0 42.255 42.255"><title>viber-logo-sketched-variant</title><path d="M30.113,25.972c-0.429-0.352-1.528-0.139-1.795,0.36c-2.577,4.817-9.039-2.434-11.293-4.65 c-2.88-2.829-0.78-5.481-0.372-8.139c0.168-1.092,0.135-2.051,0.37-2.244c0.185-0.152,0.253-0.32,0.09-0.458 C14.092,8.286,7.13-3.799,2.195,3.554c-6.618,9.86,3.196,20.532,10.075,26.907c5.272,4.886,13.448,13.105,21.493,11.001 c1.068-0.28,2.098-0.748,2.367-0.837c0.27-0.09,0.59-0.285,0.722-0.421s1.021-0.707,1.803-1.487 C43.479,33.907,34.172,29.315,30.113,25.972z M37.798,38.075c-0.832,0.726-1.924,0.999-2.182,0.977 c-0.259-0.02-0.604,0.087-0.773,0.259c-0.169,0.17-0.879,0.473-1.6,0.613c-0.721,0.142-0.979-0.13-0.565-0.546 c0.412-0.416,0.683-0.771,0.606-0.797c-0.077-0.025-0.487,0.321-0.915,0.773c-0.429,0.45-1.381,0.889-2.13,0.893 c-0.523,0.004-0.985-0.028-1.35-0.098c-0.021-0.004-0.045-0.011-0.067-0.018c-0.036-0.01,0.433-0.55,1.049-1.209 c0.615-0.659,0.615-1.419,0.02-1.738s-1.655-0.012-2.383,0.724c-0.729,0.735-2.132,0.957-3.081,0.393 c-0.134-0.08-0.267-0.161-0.399-0.243c-0.938-0.582-1.033-1.738-0.254-2.521c0.023-0.023,0.045-0.045,0.068-0.067 c0.78-0.78,1.245-1.551,1.039-1.718c-0.207-0.168-1.034,0.297-1.85,1.043c-0.04,0.037-0.081,0.075-0.122,0.112 c-0.815,0.745-1.322,1.471-1.131,1.616c0.191,0.145,0.231,0.179,0.086,0.075c-0.088-0.062-0.176-0.125-0.262-0.187 c-2.723-1.957-5.108-4.406-7.539-6.702C8.803,24.742,3.617,19.575,2.176,12.191c-0.47-2.407,0.402-8.003,2.961-9.072 c1.019-0.426,1.308,0.663,0.519,1.436C5.25,4.952,4.842,5.353,4.432,5.753C3.643,6.526,2.998,7.168,2.993,7.19 C2.988,7.211,3.625,6.604,4.419,5.836c2.223-2.154,3.497-3.368,2.162-1.994C6.21,4.199,5.455,4.928,4.395,5.952 C3.601,6.72,2.833,7.849,2.731,8.484c-0.064,0.403-0.11,0.792-0.138,1.154c0,0.009,0,0.017,0,0.026 c0,0.014,0.627-0.612,1.403-1.398c0.567-0.575,1.133-1.148,1.698-1.72C6.47,5.76,7.196,4.736,7.353,4.272 C7.51,3.806,8.024,3.644,8.417,3.954c0.22,0.175,0.447,0.374,0.68,0.6c1.427,1.384,2.574,3.015,3.834,4.544 c0.702,0.852,1.204,1.579,1.15,1.738c-0.031,0.093-0.021,0.19,0.051,0.286c1.634,2.217-0.246,4.302-0.777,6.366 c-0.352,1.368,0.354,2.768,1.004,3.89c1.373,2.369,4.446,4.463,6.598,6.125c2.303,1.779,4.832,2.433,6.863,1.319 c0.97-0.53,2.222-0.739,3.106-0.078c2.47,1.845,4.933,3.613,7.009,6.097C39.036,36.153,38.764,37.233,37.798,38.075z"/><path d="M8.117,19.079c-0.148,0.152-0.296,0.306-0.445,0.459c-0.768,0.793-1.195,1.729-0.943,2.083 c0.253,0.354,1.102,0.008,1.888-0.768c0.128-0.126,0.256-0.253,0.384-0.379c0.787-0.775,1.209-1.718,0.956-2.111 C9.704,17.968,8.885,18.285,8.117,19.079z"/><path d="M7.227,17.48c0.772-0.791,1.174-1.869,0.935-2.424c-0.239-0.555-1.046-0.386-1.833,0.389 c-0.21,0.207-0.42,0.414-0.63,0.621c-0.787,0.775-1.215,1.856-0.93,2.403c0.286,0.548,1.166,0.337,1.937-0.454 C6.88,17.836,7.054,17.657,7.227,17.48z"/><path d="M13.278,22.729c-0.229-0.259-1.044,0.16-1.827,0.939c-0.091,0.091-0.182,0.183-0.273,0.273 c-0.783,0.777-1.218,1.629-0.968,1.896c0.251,0.268,1.079-0.162,1.848-0.955c0.082-0.084,0.164-0.169,0.245-0.253 C13.073,23.837,13.507,22.987,13.278,22.729z"/><path d="M6.402,11.052c0.236-0.237,0.389-0.675,0.359-0.98c-0.03-0.306-0.678,0.082-1.455,0.867 c-0.336,0.34-0.673,0.681-1.01,1.021c-0.776,0.786-1.366,1.621-1.311,1.864c0.055,0.243,0.752-0.183,1.548-0.948 c0.48-0.462,0.96-0.925,1.441-1.395C6.117,11.338,6.26,11.195,6.402,11.052z"/><path d="M16.232,25.806c-0.082-0.078-0.782,0.49-1.562,1.272c-0.06,0.061-0.121,0.121-0.182,0.183 c-0.78,0.781-1.37,1.456-1.316,1.507c0.054,0.05,0.751-0.521,1.558-1.275c0.063-0.06,0.127-0.118,0.19-0.177 C15.727,26.56,16.314,25.885,16.232,25.806z"/><path d="M16.333,28.638c-0.061,0.058-0.121,0.113-0.182,0.169c-0.81,0.753-1.17,1.641-0.807,1.982 c0.363,0.344,1.315,0.016,2.128-0.732c0.065-0.06,0.129-0.117,0.193-0.178c0.812-0.749,1.171-1.638,0.803-1.981 C18.1,27.553,17.142,27.887,16.333,28.638z"/><path d="M20.319,32.699c-0.79,0.771-0.77,0.792,0.036,0.036c0.057-0.054,0.113-0.106,0.17-0.159 c0.805-0.756,1.44-1.387,1.421-1.404c-0.018-0.018-0.674,0.596-1.463,1.366C20.429,32.591,20.374,32.646,20.319,32.699z"/><path d="M21.126,12.76c-0.293,0.233-0.243,0.555,0.159,0.593c3.424,0.323,5.55,3.053,6.493,6.162 c0.183,0.601,2.107,0.061,1.933-0.518c-1.043-3.438-3.488-6.251-7.218-6.604C22.025,12.349,21.499,12.463,21.126,12.76z"/><path d="M34.162,22.214c-0.021,0.796,1.915,0.388,1.931-0.244C36.314,13.07,29.2,6.446,20.61,5.709 c-0.732-0.063-2.058,0.975-0.754,1.086C27.838,7.48,34.364,14.079,34.162,22.214z"/><path d="M19.65,0.458c-0.798-0.06-2.036,1.089-0.727,1.188c11.169,0.84,18.548,10.624,21.385,20.706 c0.209,0.742,2.139,0.219,1.932-0.519C39.229,11.138,31.345,1.338,19.65,0.458z"/></symbol><symbol id="pin-sketched-social-symbol" viewBox="0 0 46.8 46.8"><title>pin-sketched-social-symbol</title><path d="M23.643,0.011c-0.02-0.001-0.04,0.007-0.061,0.007C23.518,0.013,23.468-0.003,23.393,0 C14.616,0.591,7.66,7.127,7.414,16.113c-0.142,5.202,3.815,9.191,6.997,12.81c2.381,2.707,4.048,5.497,5.379,8.866 c1.09,2.757,1.373,5.825,2.565,8.51c0.341,0.768,1.576,0.596,1.896-0.122c2.508-5.628,2.864-11.13,6.908-16.183 c3.232-4.04,6.882-7.259,7.97-12.514C41.05,8.214,32.001,0.573,23.643,0.011z M24.07,40.792c-0.046,0.17-0.093,0.34-0.14,0.51 c-0.146,0.532-0.378,1.071-0.511,1.205c-0.133,0.135-0.334-0.059-0.445-0.433s0.117-0.998,0.506-1.392 c0.049-0.049,0.098-0.098,0.146-0.146C24.015,40.145,24.215,40.259,24.07,40.792z M25.22,36.856 c-0.216,0.628-0.41,1.262-0.593,1.897c-0.152,0.531-0.576,1.288-0.957,1.688c-0.069,0.071-0.138,0.145-0.206,0.217 c-0.381,0.398-0.811,0.296-0.959-0.231c-0.148-0.527,0.039-1.283,0.416-1.687c0.653-0.697,1.306-1.396,1.958-2.094 C25.256,36.244,25.398,36.335,25.22,36.856z M34.432,23.574c-2.378,3.372-5.474,6.082-7.598,9.657 c-0.165,0.278-0.317,0.561-0.462,0.844c-0.239,0.475-0.586,0.521-0.815,0.099c-0.229-0.422-0.746-0.435-1.136-0.044 c-0.431,0.435-0.861,0.869-1.293,1.308c-0.298,0.303-0.601,0.604-0.904,0.903c-0.392,0.389-0.847,0.277-1.033-0.242 c-0.197-0.553-0.412-1.1-0.652-1.638c-0.08-0.179-0.165-0.354-0.253-0.526c-0.147-0.288,0.045-0.836,0.435-1.228 c0.504-0.505,1.011-1.014,1.523-1.525c0.391-0.392,0.59-0.849,0.445-1.021s-0.594-0.007-1.002,0.364 c-0.501,0.458-0.981,0.897-1.441,1.319c-0.407,0.374-0.965,0.292-1.268-0.17c-0.146-0.222-0.295-0.441-0.447-0.659 c-0.317-0.452-0.264-1.115,0.138-1.494c0.394-0.37,0.784-0.738,1.173-1.105c0.401-0.379,0.715-0.7,0.7-0.717 c-0.016-0.018-0.348,0.282-0.743,0.669c-0.385,0.377-0.769,0.753-1.153,1.128c-0.394,0.387-0.985,0.342-1.331-0.089 c-0.271-0.339-0.546-0.672-0.826-1.003c-0.356-0.423-0.321-1.062,0.085-1.437c0.386-0.354,0.771-0.71,1.156-1.066 c0.406-0.374,0.521-0.948,0.269-1.288c-0.254-0.342-0.776-0.32-1.182,0.056c-0.414,0.385-0.829,0.771-1.244,1.155 c-0.405,0.376-0.973,0.407-1.268,0.071c-0.294-0.337-0.204-0.916,0.2-1.293c0.48-0.447,0.962-0.897,1.443-1.348 c0.403-0.377,0.685-0.761,0.631-0.858c-0.056-0.098-0.414,0.138-0.804,0.528c-0.461,0.462-0.95,0.951-1.46,1.462 c-0.391,0.393-0.802,0.599-0.919,0.464c-0.07-0.081-0.142-0.163-0.211-0.245c-0.269-0.316-0.52-0.639-0.757-0.965 c-0.324-0.447-0.249-1.149,0.136-1.546c0.707-0.729,1.412-1.456,2.114-2.179c0.385-0.396,0.638-0.99,0.589-1.33 c-0.05-0.34-0.391-0.303-0.782,0.087c-0.835,0.832-1.657,1.65-2.471,2.46c-0.392,0.39-0.922,0.312-1.146-0.191 c-0.232-0.521-0.428-1.047-0.59-1.576c-0.161-0.528,0.061-1.28,0.453-1.669c1.438-1.417,2.875-2.836,4.312-4.253 c0.394-0.388,0.834-1.135,1.021-1.654c0.301-0.838,0.672-1.642,1.107-2.404c0.273-0.479,0.212-0.53-0.173-0.135 c-2.188,2.25-4.37,4.503-6.554,6.755c-0.385,0.396-0.737,0.337-0.754-0.136c-0.018-0.473,0.311-1.174,0.698-1.566 c0.665-0.674,1.701-1.73,3.201-3.259c3.141-3.227,5.866-6.03,8.301-8.534c0.386-0.396,0.252-0.664-0.29-0.559 c-0.235,0.046-0.469,0.098-0.7,0.154c-0.536,0.131-1.292,0.571-1.699,0.945c-0.52,0.479-1.034,0.952-1.537,1.415 c-2.228,2.188-4.501,4.422-6.796,6.679c-0.394,0.388-0.599,0.269-0.415-0.253c1.662-4.704,5.895-8.49,11.727-9.265 c0.548-0.073,1.331-0.077,1.742-0.024c0.411,0.052,0.674,0.105,0.591,0.099c-0.084-0.007-0.464,0.312-0.85,0.707 c-0.424,0.435-0.849,0.87-1.273,1.305c-0.385,0.396-0.332,0.457,0.14,0.17c0.715-0.436,1.468-0.815,2.253-1.13 c0.513-0.206,1.018-0.429,1.115-0.538c0.099-0.108,0.61-0.085,1.135,0.092C35.691,5.23,40.282,15.283,34.432,23.574z M9.691,14.833c0.004-0.088,0.32-0.479,0.706-0.875c4.748-4.856,8.319-8.466,9.64-9.714c3.732-3.755-6.42,6.677-9.657,10.027 C9.996,14.668,9.688,14.92,9.691,14.833z"/><path d="M28.818,15.742c0.006-0.077,0.338-0.443,0.741-0.82c0.651-0.605,1.304-1.211,1.953-1.817 c0.404-0.376,0.387-0.882-0.078-1.029c-0.464-0.146-1.188,0.122-1.593,0.498c-0.166,0.153-0.332,0.308-0.498,0.461 c-0.404,0.376-0.874,0.25-1.165-0.22c-0.94-1.518-2.727-2.538-4.536-2.636c-2.925-0.157-5.345,2.031-5.802,4.838 c-0.503,3.09,2.3,5.547,5.157,5.701c0.012,0,0.023-0.002,0.035-0.004c0.019-0.003,0.074,0,0.123,0.008 c0.028,0.005,0.058,0.008,0.092,0.006c2.845-0.152,5.089-1.998,5.553-4.845C28.809,15.834,28.813,15.789,28.818,15.742z M24.461,19.006c-0.523,0.177-1.432,0.164-1.95-0.025c-3.292-1.2-3.9-6.595,0.246-7.269 C27.101,11.004,28.242,17.733,24.461,19.006z"/><path d="M28.101,20.422c0.062,0.035,0.439-0.249,0.84-0.63c1.598-1.518,3.137-2.983,4.606-4.387c0.4-0.381,0.7-0.75,0.667-0.822 c-0.032-0.071-0.38,0.183-0.775,0.568c-1.142,1.114-2.277,2.227-3.403,3.332c-0.395,0.387-0.396,0.386-0.002-0.001 c1.077-1.06,2.264-2.227,3.398-3.344c0.395-0.387,0.707-0.716,0.697-0.732c-0.01-0.017-0.336,0.282-0.732,0.668 c-1.577,1.543-3.144,3.073-4.692,4.587C28.309,20.047,28.039,20.387,28.101,20.422z"/><path d="M34.078,17.03c0.271-0.24,0.491-0.453,0.494-0.477c0.003-0.023-0.218,0.17-0.489,0.435 C33.81,17.25,33.808,17.27,34.078,17.03z"/></symbol><symbol id="email-sketched-envelope-back" viewBox="0 0 54.729 54.729"><title>email-sketched-envelope-back</title><path d="M51.496,9.361c-9.181,0-18.359,0-27.541,0c-5.352,0-10.705,0-16.058,0c-2.001,0-4.596-0.41-6.458,0.521 c-0.493,0.246-0.935,0.607-1.037,0.711c-0.103,0.102-0.227,0.305-0.254,0.442c-0.026,0.138,0.038,0.693,0.038,1.246 c0,4.866,0,9.732,0,14.599c0,3.521,0,7.045,0,10.567c0,1.511-0.431,4.225,0.016,5.625c1.069,3.361,6.826,2.185,9.535,2.185 c7.652,0,15.305,0,22.958,0c5.942,0,11.886,0,17.828,0c4.167,0,3.984-2.954,3.984-6.292c0-1.646,0-3.293,0-4.939 c0-0.552,0.01-1.233,0.011-1.521c0.002-0.261,0.002-0.521,0.002-0.521c-0.01-1.18-0.012-2.368-0.013-3.557 c0-0.552,0.009-1.448,0.011-2c0.002-0.629,0.002-1.322,0.002-1.322c-0.007-0.31-0.01-0.622-0.011-0.937 c-0.003-0.518,0.008-1.205,0.009-1.538c0.002-0.304,0.002-0.606,0.002-0.606c-0.009-0.627-0.011-1.258-0.013-1.893 c0-0.553,0.01-1.231,0.011-1.52c0.002-0.287-0.007-0.575-0.009-0.642c-0.002-0.041-0.002-0.082-0.002-0.124 C54.508,14.73,55.944,9.361,51.496,9.361z M51.184,43.773c-5.471,0-10.941,0-16.412,0c-7.802,0-15.604,0-23.404,0 c-2.292,0-4.583,0-6.874,0c-0.18,0-0.341-0.018-0.489-0.047c-0.267-0.054-0.144-0.453,0.259-0.832 c0.795-0.748,1.595-1.5,2.4-2.259c0.402-0.378,0.729-0.759,0.729-0.851V39.62c0,0,0-0.292,0-0.651c0-0.36-0.306-0.325-0.683,0.079 c-1.043,1.118-2.09,2.233-3.139,3.347c-0.379,0.402-0.988,0.379-1.158-0.146c-0.238-0.743-0.263-1.665-0.263-2.556 c0-9.169,0-18.339,0-27.509c0-0.552,0.382-1.257,0.925-1.358c0.411-0.075,0.878-0.096,1.344-0.09 c0.553,0.007,0.677,0.355,0.277,0.738c-0.596,0.572-1.199,1.151-1.811,1.737c-0.398,0.382-0.722,0.715-0.722,0.742 c0,0.028,0.322-0.26,0.721-0.642c0.644-0.619,1.277-1.227,1.908-1.833c0.398-0.382,0.961-0.675,1.256-0.656 c0.205,0.014,0.387,0.022,0.534,0.022c3.213,0,6.427,0,9.64,0c7.95,0,15.901,0,23.853,0c1.76,0,12.472-1.309,12.472,1.495 c0,2.097,0,4.193,0,6.292c0,0.552-0.318,1.314-0.711,1.704c-0.278,0.274-0.557,0.55-0.836,0.825 c-0.394,0.389-0.729,0.256-0.791-0.293c-0.262-2.3-1.096-3.956-3.366-2.347c-2.11,1.495-4.22,2.99-6.33,4.484 c-1.615,1.144-4.021,2.177-3.573,4.494c0.198,1.022,1.815,2.244,3.082,3.167c0.446,0.324,0.489,0.906,0.099,1.297 c-0.079,0.079-0.158,0.157-0.237,0.236c-0.392,0.391-1.065,0.437-1.503,0.101c-0.691-0.531-1.351-1.05-1.935-1.562 c-1.149-1.006-2.119-1.717-3.773-1.608c-1.116,0.072-2.138,0.941-2.991,1.545c-1.247,0.88-2.2,0.953-3.054,0.65 c-0.521-0.184-0.562-0.753-0.158-1.129c0.087-0.08,0.173-0.161,0.26-0.241c0.404-0.376,0.462-0.628,0.16-0.48 c-0.183,0.089-0.353,0.2-0.504,0.334c0,0-0.216,0.191-0.482,0.428c-0.267,0.237-0.782,0.214-1.145-0.061 c-0.215-0.163-0.434-0.33-0.659-0.492c-0.066-0.056-0.147-0.108-0.259-0.152c-3.129-1.226-4.831,0.821-7.023,2.766 c-2.462,2.184-6.116,4.381-7.622,7.376c-0.172,0.341,0.059,0.679,0.378,0.805c1.765,0.704,3.618,0.454,5.508,0.454 c4.105,0,8.211,0,12.317,0c4.105,0,8.211,0,12.316,0c1.975,0,3.711,0.204,5.545-0.523c0.433-0.171,0.656-0.627,0.445-1.039 c-0.163-0.315-0.352-0.626-0.56-0.931c-0.313-0.455-0.29-1.119,0.097-1.514c0.091-0.095,0.183-0.188,0.272-0.281 c0.386-0.396,0.814-0.615,0.958-0.489c0.145,0.125,0.295,0.273,0.349,0.319c0.053,0.046,0.15,0.119,0.223,0.156 c0.071,0.038,0.524,0.309,1.072,0.383c1.658,0.227,2.146-1.943,2.23-4.339c0.021-0.553,0.326-1.319,0.712-1.714 c0.265-0.271,0.527-0.539,0.791-0.811c0.388-0.395,0.699-0.625,0.699-0.514c0,0.066,0,0.134,0,0.201 c0,0.341,0.071,1.496,0.131,3.003c0.021,0.552-0.028,1.063-0.105,1.145c-0.078,0.08-0.075,0.204,0.008,0.275 c0.083,0.072,0.162,0.579,0.17,1.131C52.804,39.293,52.589,43.773,51.184,43.773z M51.864,24.873 c-0.34,0.363-0.679,0.727-1.019,1.091c-0.377,0.403-0.659,0.281-0.627-0.27c0.02-0.319,0.038-0.673,0.055-1.045 c0.023-0.552,0.338-1.327,0.714-1.73c0.294-0.315,0.586-0.629,0.877-0.942c0.377-0.404,0.682-0.284,0.682,0.268 c0,0.3,0,0.599,0,0.897C52.545,23.693,52.241,24.468,51.864,24.873z M52.545,26.159c0,0.519-0.315,1.257-0.704,1.648 c-0.289,0.291-0.577,0.582-0.864,0.87c-0.389,0.392-0.727,0.315-0.76-0.169c-0.032-0.485,0.26-1.196,0.648-1.588 c0.331-0.334,0.655-0.664,0.977-0.987C52.229,25.541,52.545,25.642,52.545,26.159z M50.159,27.15c0,0.236-0.005,0.333-0.011,0.215 c-0.003-0.079-0.004-0.15-0.004-0.213c0-0.062,0.002-0.135,0.004-0.216C50.155,26.817,50.159,26.913,50.159,27.15z M48.092,34.479 c0.03,0.551-0.031,0.624-0.447,0.26c-2.362-2.066-4.728-4.134-7.091-6.202c-1.258-1.1-2.214-2.131-0.477-3.361 c1.811-1.283,3.621-2.565,5.432-3.849c0.744-0.527,2.674-2.568,2.674-1.136c0,1.709,0,3.419,0,5.128c0,2.321,0,4.644,0,6.964 C48.183,32.711,48.049,33.717,48.092,34.479z M42.599,38.572c0.532,0.466,1.731,0.877,0.729,0.877c-2.729,0-5.459,0-8.189,0 c-7.406,0-14.813,0-22.221,0c-3.017,0-0.523-1.137,1.019-2.504c1.524-1.353,5.057-5.814,7.736-6.164 c0.548-0.07,1.349,0.353,1.79,0.685c1.465,1.1,3.184,2.31,5.014,1.578c1.816-0.729,4.213-3.144,6.069-1.519 c1.412,1.235,2.823,2.471,4.235,3.706C40.054,36.345,41.326,37.459,42.599,38.572z M41.312,33.297 c0.057-0.06,0.111-0.119,0.166-0.179c0.377-0.403,1.006-0.447,1.405-0.099c0.398,0.349,0.415,0.957,0.035,1.358 c-0.039,0.042-0.079,0.084-0.118,0.125c-0.38,0.401-1.013,0.448-1.423,0.117C40.967,34.29,40.936,33.7,41.312,33.297z M42.878,35.909c-0.267-0.242-0.173-0.752,0.216-1.144c0.042-0.042,0.084-0.084,0.125-0.126c0.39-0.394,0.925-0.517,1.197-0.279 c0.271,0.238,0.178,0.749-0.211,1.142c-0.049,0.049-0.099,0.098-0.146,0.146C43.67,36.041,43.145,36.152,42.878,35.909z"/><path d="M17.938,27.114c0.174-0.922-0.154-1.638-0.705-2.237c-0.373-0.407-0.425-0.98-0.032-1.368 c0.128-0.125,0.256-0.251,0.384-0.377c0.393-0.389,1.077-0.444,1.527-0.125c0.416,0.295,0.833,0.59,1.249,0.885 c0.45,0.319,0.499,0.895,0.107,1.285c-2.779,2.765-5.448,5.421-8.004,7.963c-0.392,0.39-0.709,0.954-0.709,1.26v0.555 c0,0.118,0.008,0.227,0.023,0.324c0.026,0.177,0.395-0.008,0.779-0.403c1.216-1.258,2.434-2.514,3.645-3.75 c1.732-1.79,3.448-3.559,5.154-5.314c0.385-0.396,1.061-0.458,1.512-0.139c0.736,0.521,1.473,1.044,2.209,1.564 c0.043,0.031,0.095,0.06,0.151,0.086c3.769,1.54,6.725-1.732,9.57-3.749c3.484-2.468,8.865-4.932,11.338-8.489 c0.256-0.368,0.197-0.82-0.265-0.987c-1.755-0.634-3.598-0.404-5.452-0.404c-4.124,0-8.248,0-12.372,0c-4.224,0-8.448,0-12.672,0 c-1.973,0-4.062-0.295-5.935,0.382c-0.431,0.156-1.063,0.603-0.695,1.134c1.108,1.595,2.917,2.815,4.698,3.942 c0.467,0.295,0.528,0.848,0.135,1.234c-0.125,0.123-0.251,0.247-0.376,0.37c-0.393,0.388-1.078,0.442-1.528,0.124 c-1.257-0.892-2.514-1.783-3.773-2.675c-0.049-0.034-0.102-0.062-0.158-0.083c-0.064-0.03-0.121-0.056-0.174-0.076 c-0.097-0.04-0.178-0.414-0.178-0.843c0-0.428-0.321-0.463-0.718-0.077c-0.046,0.044-0.091,0.088-0.137,0.132 c-0.396,0.384-0.739,0.706-0.767,0.719c-0.026,0.013,0.273-0.287,0.669-0.672c0.078-0.076,0.156-0.153,0.235-0.23 c0.396-0.385,0.383-0.398-0.019-0.02c-0.133,0.125-0.265,0.251-0.398,0.378c-0.398,0.382-0.789,0.749-0.867,0.824 c-0.077,0.076-0.453,0.456-0.85,0.84c-0.571,0.554-1.152,1.117-1.746,1.69c-0.794,0.814,0.059-0.001,1.618-1.514 c0.397-0.385,0.698-0.669,0.674-0.634c-0.025,0.034-0.364,0.376-0.761,0.761c-0.473,0.458-0.955,0.926-1.446,1.403 c-0.396,0.385-0.718,1.143-0.718,1.696v0.211c0,0.552,0.312,0.679,0.698,0.282c0.267-0.272,0.532-0.545,0.799-0.817 c0.386-0.396,0.662-0.27,0.649,0.283c-0.012,0.473-0.008,0.952,0.007,1.423c0.016,0.552-0.273,1.316-0.662,1.709 c-0.263,0.265-0.525,0.53-0.789,0.796c-0.388,0.393-0.702,0.795-0.702,0.896c0,0.103,0.329-0.12,0.732-0.497 c0.255-0.239,0.51-0.479,0.765-0.72c0.402-0.379,0.756-0.239,0.796,0.312c0.05,0.69,0.093,1.255,0.093,1.601 c0,0.146-0.011,0.384-0.026,0.688c-0.019,0.379-0.354,1.001-0.747,1.39c-0.3,0.296-0.601,0.593-0.901,0.891 c-0.394,0.389-0.711,1.15-0.711,1.703v1.113c0,0.552,0.312,0.677,0.696,0.28c0.288-0.299,0.575-0.596,0.862-0.893 c0.385-0.396,0.701-0.269,0.734,0.282c0.001,0.029,0.003,0.058,0.005,0.087c0.035,0.551-0.22,1.317-0.604,1.714 c-0.333,0.343-0.666,0.687-0.998,1.029c-0.384,0.396-0.695,1.03-0.695,1.413s0.317,0.378,0.707-0.014 c0.538-0.536,1.076-1.074,1.615-1.61c0.05-0.049,0.1-0.1,0.149-0.148c0.083-0.082,0.219,0.137,0.359,0.464 c0.141,0.328,0.006,0.876-0.384,1.269c-0.581,0.584-1.162,1.168-1.742,1.753c-0.39,0.392-0.705,0.744-0.705,0.786 s0.317-0.24,0.708-0.63c0.605-0.604,1.214-1.207,1.821-1.811c0.393-0.389,1.059-0.302,1.608-0.356 c0.412-0.041,0.91-0.297,1.513-0.832c2.033-1.805,4.066-3.608,6.1-5.413C14.885,30.27,17.662,28.577,17.938,27.114z M16.396,22.294c-0.128,0.133-0.257,0.265-0.385,0.397c-0.385,0.396-0.907,0.586-1.165,0.418 c-0.159-0.104-0.314-0.208-0.461-0.311c-0.062-0.043-0.122-0.086-0.183-0.129c-0.101-0.071,0.131-0.45,0.516-0.846 c0.138-0.141,0.274-0.28,0.41-0.42c0.386-0.396,0.754-0.68,0.82-0.635c0.04,0.027,0.08,0.054,0.119,0.081 c0.171,0.121,0.342,0.242,0.513,0.363C16.865,21.412,16.782,21.896,16.396,22.294z M11.848,15.825 c-0.403-0.377-0.261-0.798,0.288-0.857c2.897-0.315,6.318,0.206,8.936,0.206c6.166,0,12.333,0,18.5,0c1.193,0,2.389,0,3.583,0 c0.553,0,0.565,0.116,0.104,0.417c-0.912,0.593-2.162,1.654-2.741,2.065c-2.588,1.833-5.177,3.667-7.765,5.5 c-1.469,1.04-3.332,3.044-5.3,3.044c-0.553,0-1.345-0.435-1.795-0.755c-2.165-1.534-4.332-3.068-6.497-4.604 C17.019,19.322,13.948,17.781,11.848,15.825z M6.512,35.128c0-0.181,0-0.359,0-0.538c0-0.297,0.01-0.891,0.011-1.324 c0.002-0.393,0.002-0.786,0.002-0.786c-0.007-0.4-0.01-0.805-0.012-1.211c-0.002-0.552,0.009-1.187,0.01-1.417 c0.002-0.208,0.002-0.417,0.002-0.417c0.062-1.602,0.349-6.741,0.255-8.943c-0.024-0.552,0.227-0.725,0.677-0.404 c2.513,1.78,5.026,3.562,7.539,5.344c1.945,1.379,0.103,2.554-1.02,3.551c-1.764,1.564-3.526,3.129-5.29,4.694 C8.021,34.265,6.512,36.227,6.512,35.128z"/><path d="M46.431,18.238l0.18-0.127c0.45-0.318,1.151-0.875,1.565-1.24c0.825-0.728,1.65-1.456,2.472-2.18 c0.414-0.365,0.615-0.746,0.428-0.784c-0.19-0.039-0.669,0.273-1.065,0.657c-1.225,1.188-2.45,2.373-3.676,3.557 C45.937,18.506,45.979,18.557,46.431,18.238z"/><path d="M2.88,18.282c1.245-1.212,2.514-2.449,3.801-3.718c0.394-0.388,0.711-1.126,0.711-1.647c0-0.523-0.317-0.632-0.709-0.242 c-1.273,1.264-2.544,2.523-3.81,3.782c-0.393,0.389-0.71,1.111-0.71,1.614C2.163,18.572,2.485,18.668,2.88,18.282z"/><path d="M36.194,25.489c0.389-0.274,1.026-0.806,1.428-1.187c3.484-3.315,6.681-6.367,9.541-9.114 c0.217-0.21,0.444-0.433,0.683-0.663c0.377-0.366,0.654-0.664,0.618-0.664c-0.035,0-0.277,0.204-0.542,0.455 c-0.265,0.25-0.27,0.25-0.012-0.001c0.259-0.25,0.397-0.454,0.309-0.454s-0.481,0.312-0.879,0.696 c-3.174,3.075-6.316,6.135-9.396,9.159c-0.395,0.387-0.395,0.386-0.001-0.001c4.062-3.997,9.662-9.484,8.698-8.625 c-3.553,3.474-7.026,6.868-10.437,10.2C35.811,25.675,35.805,25.765,36.194,25.489z"/><path d="M48.676,37.979c-0.302,0.309-0.602,0.618-0.904,0.927c-0.386,0.396-0.501,0.715-0.257,0.715s0.523-0.08,0.624-0.179 l0.184-0.18c0.282-0.284,0.565-0.568,0.85-0.854c0.389-0.392,0.592-0.807,0.454-0.928C49.487,37.36,49.061,37.584,48.676,37.979z"/></symbol><symbol id="instagram-sketched-logo" viewBox="0 0 43.941 43.941"><title>instagram-sketched-logo</title><path d="M43.782,28.688c0-7.118,0-14.235,0-21.354c0-5.454-3.556-7.016-8.349-7.016c-9.568,0-19.139,0-28.708,0 c-0.025,0-0.051,0.001-0.078,0.005C6.606,0.327,6.551,0.335,6.527,0.334c-0.013,0-0.026,0-0.044,0.002 C0.274,1.056,0,5.728,0,10.775c0,7.492,0,14.984,0,22.476c0,4.622,0.159,9.937,6.318,9.937c6.534,0,13.067,0,19.601,0 c3.72,0,11.015,1.395,14.472-0.809C45.059,39.403,43.782,33.51,43.782,28.688z M41.883,8.725c-0.016,0.489-0.033,0.951-0.033,1.36 c0,0.119,0,0.237,0,0.355c0,0.196-0.322,0.666-0.72,1.049c-0.677,0.653-1.354,1.306-2.028,1.958 c-0.396,0.384-0.65,0.717-0.562,0.734c0.087,0.018,0.48-0.287,0.877-0.672c0.532-0.517,1.107-1.078,1.719-1.672 c0.396-0.386,0.715-0.309,0.715,0.171c0,0.479-0.312,1.17-0.699,1.544c-0.385,0.373-0.563,0.677-0.398,0.677 s0.479-0.158,0.699-0.353c0.221-0.194,0.398,0.096,0.398,0.648c0,2,0,4.001,0,6.001c0,1.418,0.031,2.852,0.069,4.294 c0.015,0.552-0.062,1.344-0.2,1.761c-0.138,0.417-0.158,0.624-0.012,0.475c0.146-0.15,0.277,0.176,0.291,0.728 c0.014,0.54,0.023,1.079,0.033,1.619c0.009,0.552-0.299,1.321-0.686,1.716c-0.52,0.533-1.039,1.066-1.56,1.6 c-0.386,0.396-0.709,0.369-0.722-0.061c-0.008-0.268-0.014-0.527-0.014-0.778c0-3.042,1.84-12.663-2.033-13.801 c-0.024-0.007-0.054-0.012-0.084-0.015c-0.047-0.004-0.131-0.018-0.189-0.026c-0.057-0.008-0.113-0.025-0.125-0.044 s-0.035-0.021-0.053-0.004c-0.016,0.017-0.123,0.031-0.237,0.05c-0.063,0.01-0.132,0.025-0.204,0.045 c-2.965,0.828-2.066,2.629-2.214,5.456c-0.073,1.398-0.411,2.674-0.942,3.822c-0.232,0.501-0.779,1.201-1.171,1.592 c-0.177,0.176-0.354,0.354-0.53,0.529c-0.391,0.39-0.57,0.688-0.406,0.658c0.164-0.029-0.006,0.275-0.415,0.646 c-1.884,1.707-4.353,2.781-6.95,3.1c-0.548,0.066-0.897-0.016-0.774-0.139s0.053-0.314-0.153-0.436 c-0.205-0.119-0.581-0.027-0.846,0.217s-0.927,0.424-1.476,0.357c-0.882-0.106-1.757-0.302-2.607-0.603 c-0.123-0.043-0.242-0.091-0.36-0.142c-0.198-0.082-0.048-0.465,0.332-0.852c0.38-0.385,0.359-0.395-0.048-0.021v0.004 c-0.407,0.373-1.036,0.546-1.39,0.357c-0.354-0.188-0.299-0.664,0.108-1.037c0.459-0.42,0.919-0.843,1.377-1.264 c0.407-0.374,1.156-0.518,1.689-0.372c0.722,0.197,1.46,0.32,2.196,0.359c2.453,0.128,4.763-0.786,6.528-2.326 c0.416-0.363,0.432-0.347,0.027,0.028c-0.258,0.238-0.531,0.461-0.817,0.668c-0.449,0.322-0.938,0.617-1.052,0.721 s-0.072,0.243,0.096,0.305c0.168,0.062,0.619-0.211,1.006-0.604c1.766-1.8,3.532-3.603,5.295-5.409 c0.387-0.396,0.366-0.417-0.044-0.047c-0.774,0.699-1.543,1.393-2.299,2.076c-0.409,0.371-0.472,0.313-0.19-0.162 c0.565-0.963,0.967-2.026,1.155-3.148c0.034-0.2,0.058-0.396,0.072-0.59c0.026-0.327,0.35-0.902,0.75-1.283 c1.056-1.005,2.079-1.982,3.062-2.921c0.399-0.381,0.688-0.732,0.641-0.78c-0.047-0.048-0.404,0.225-0.801,0.61 c-0.979,0.956-1.951,1.907-2.918,2.856c-0.395,0.386-0.397,0.387-0.004-0.001c0.973-0.958,1.988-1.958,2.912-2.867 c0.393-0.387,0.704-0.71,0.694-0.72c-0.011-0.01-0.337,0.294-0.731,0.68c-0.966,0.943-1.923,1.878-2.875,2.809 c-0.395,0.386-0.722,0.25-0.818-0.294c-0.043-0.252-0.102-0.499-0.172-0.74c-0.154-0.53-0.021-1.242,0.383-1.618 c0.576-0.536,1.15-1.071,1.726-1.606c0.404-0.377,0.474-0.845,0.142-1.019c-0.334-0.173-0.945,0.017-1.351,0.392 c-0.388,0.36-0.774,0.72-1.163,1.079c-0.404,0.376-0.908,0.427-1.152,0.138s-0.129-0.807,0.277-1.181 c0.139-0.127,0.283-0.26,0.434-0.397c0.406-0.374,1.18-0.609,1.73-0.584c1.405,0.061,2.885-0.113,3.71-0.113 c2.165,0,2.937-1.246,3.187-2.821c0.088-0.545,0.115-1.013,0.139-1.035c0.014-0.013,0.027-0.026,0.042-0.039l1.556-1.446 c0.199-0.201,0.396-0.4,0.594-0.599C41.641,7.996,41.9,8.173,41.883,8.725z M41.143,11.73c-0.582,0.577-1.14,1.118-1.688,1.641 c-0.399,0.381-0.405,0.377-0.008-0.008c0.625-0.604,1.183-1.147,1.688-1.64C41.53,11.337,41.535,11.342,41.143,11.73z M36.764,37.354c-1.263,0-2.524,0-3.787,0c-5.207,0-10.415,0-15.622,0c-1.464,0-10.771,1.23-10.771-1.488c0-4.383,0-8.768,0-13.15 c0-0.714,0-1.427,0-2.141c0-1.971,1.432,2.953,1.438,3.092c0.177,3.398,2.277,6.381,4.733,8.543 c4.021,3.54,9.836,3.569,14.609,1.877c2.551-0.904,4.627-2.824,6.247-4.923c0.779-1.011,1.261-2.252,1.705-3.429 c0.174-0.458,0.453-3.475,0.715-5.32c0.078-0.547,0.494-0.67,0.736-0.174c1.475,3.003,0.35,10.215,0.35,12.158 C37.118,32.663,37.374,37.354,36.764,37.354z M16.515,28.749c0.329,0.206,0.282,0.655-0.123,1.03 c-0.384,0.357-0.768,0.713-1.152,1.07c-0.405,0.375-0.97,0.492-1.248,0.242c-0.277-0.25-0.161-0.773,0.243-1.15 c0.321-0.299,0.643-0.6,0.966-0.901C15.604,28.663,16.186,28.543,16.515,28.749z M20.55,14.136c0.545-0.09,1.443-0.09,1.988,0.002 c8.343,1.409,9.446,14.653-0.222,15.158C13.277,29.768,11.76,15.59,20.55,14.136z M37.055,12.434 c-0.147,1.273-2.176,0.811-3.02,0.811c-1.066,0-2.334,0.254-3.152-0.564c-0.604-0.604-0.349-2.235-0.349-2.987 c0-0.48-0.195-2.074,0.104-3.015c0.166-0.526,1.084-0.721,1.635-0.761c1.567-0.116,3.57-0.279,4.479,0.632 c0.604,0.606,0.35,2.235,0.35,2.988C37.102,10.499,37.165,11.481,37.055,12.434z M2.553,4.578C3.114,3.162,3.942,2.09,5.142,1.596 c0.511-0.21,1.015-0.257,1.079-0.257S6.024,1.658,5.637,2.052C4.751,2.955,3.845,3.878,2.931,4.81 C2.544,5.205,2.349,5.092,2.553,4.578z M1.614,15.517c-0.008-0.143-0.017-0.286-0.025-0.43c-0.032-0.551,0.265-1.31,0.663-1.692 c1.89-1.816,3.7-3.554,5.452-5.233C8.103,7.78,8.427,7.451,8.427,7.43c0-0.022-0.323,0.27-0.722,0.653 c-1.72,1.651-3.542,3.401-5.456,5.235C1.85,13.7,1.516,13.816,1.501,13.576c-0.009-0.144-0.018-0.288-0.026-0.433 C1.458,11.89,1.484,10.62,1.581,9.399c0.043-0.551,0.41-1.316,0.795-1.712C3.914,6.114,5.42,4.574,6.84,3.123 C7.226,2.728,7.23,2.73,6.846,3.127C6.502,3.483,6.154,3.844,5.802,4.209c-0.383,0.398-0.38,0.399,0.006,0.005 c0.708-0.723,1.413-1.441,2.119-2.161c0.387-0.394,1.148-0.714,1.7-0.714c0.606,0,1.213,0,1.82,0c0.552,0,0.949,0.05,0.887,0.113 s0.018,0.07,0.18,0.022s0.31-0.087,0.328-0.104c0.018-0.017,0.481-0.031,1.033-0.031c2.709,0,5.417,0,8.126,0 c3.581,0,7.162,0,10.742,0c2.599,0,5.091-0.337,7.229,1.222c0.445,0.325,1.086,0.969,1.332,1.463 c0.174,0.347,0.297,0.73,0.387,1.137c0.117,0.539-0.18,1.294-0.584,1.67c-0.435,0.404-0.869,0.809-1.303,1.213 c-0.406,0.376-0.746,0.346-0.76-0.067c-0.008-0.259-0.014-0.51-0.014-0.748c0-0.046-0.004-0.088-0.01-0.129 c-0.01-0.071,0.23-0.358,0.537-0.642c0.306-0.283,0.318-0.513,0.029-0.513c-0.29,0-0.586,0.055-0.66,0.123 c-0.076,0.068-0.354-0.296-0.82-0.595c-1.584-1.019-4.797-0.51-6.271-0.51c-0.024,0-0.051,0.002-0.077,0.005 c-0.043,0.004-0.098,0.012-0.121,0.011c-0.014,0-0.026,0-0.045,0.001C27.766,5.425,28.6,9.253,28.6,12.095 c0,0.717,0.287,1.216,0.75,1.561c0.443,0.33,0.678,0.642,0.41,0.893c-0.158,0.147-0.318,0.298-0.484,0.454 c-0.104,0.101-0.198,0.195-0.289,0.284c-0.16,0.157-0.525,0.075-0.832-0.161c-0.309-0.235-0.411-0.552-0.213-0.733 c0.199-0.182,0.298-0.321,0.222-0.31c-0.076,0.011-0.258,0.145-0.408,0.297c-0.149,0.152-0.647,0.031-1.14-0.218 c-0.914-0.461-1.902-0.792-2.907-0.979c-0.543-0.102-1.079-0.169-1.191-0.177c-0.112-0.008-0.25-0.003-0.308,0.003 c-0.058,0.006-0.552,0.041-1.099,0.12c-4.239,0.612-7.743,3.275-8.499,7.776c-0.251,1.493-0.044,2.854,0.481,4.055 c0.221,0.507,0.355,0.993,0.223,1.124c-0.132,0.133-0.239,0.549-0.239,0.932c0,0.385,0.101,0.592,0.225,0.463 c0.075-0.077,0.15-0.154,0.225-0.231c0.098-0.101,0.195-0.202,0.292-0.302c0.161-0.167,0.567,0.055,0.959,0.443 c0.085,0.086,0.173,0.17,0.263,0.25c0.407,0.373,0.456,0.953,0.066,1.344c-0.296,0.297-0.601,0.602-0.913,0.914 c-0.39,0.392-1.02,0.39-1.367-0.041c-2.132-2.644-3.068-6.219-2.809-9.69c0.054-0.726-0.225-1.34-0.696-1.729 c-0.426-0.352-0.898-0.482-0.898-0.568c0-0.087-0.065-0.091-0.146-0.01c-0.081,0.082-0.308,0.138-0.506,0.157 c-0.116,0.011-0.233,0.032-0.354,0.066c-1.502,0.423-2.27,1.369-2.644,2.562c-0.165,0.527-0.533,1.293-0.922,1.685 c-0.384,0.389-0.769,0.775-1.153,1.164c-0.389,0.393-0.69,0.539-0.678,0.326c0.01-0.178,0.015-0.311,0.015-0.387 c0-0.125-0.014-0.461-0.038-0.957c-0.025-0.527,0.265-1.276,0.65-1.672c1.701-1.747,3.392-3.476,5.074-5.19 c0.387-0.394,0.701-1.038,0.701-1.438S8.1,13.76,7.704,14.145c-1.474,1.427-3.221,3.12-5.13,4.972 c-0.396,0.384-0.741,0.266-0.771-0.265c-0.03-0.531,0.266-1.273,0.662-1.658c1.699-1.653,3.446-3.354,5.242-5.102 c0.396-0.385,0.716-1.053,0.716-1.492c0-0.438-0.318-0.478-0.71-0.089c-1.784,1.772-3.566,3.539-5.336,5.296 C1.988,16.201,1.645,16.068,1.614,15.517z M3.828,30.299c-0.4,0.413-0.801,0.825-1.201,1.238 c-0.384,0.396-0.696,0.318-0.696-0.176s0.311-1.217,0.694-1.613c0.446-0.461,0.889-0.919,1.33-1.374 c0.384-0.396,0.688-0.287,0.648,0.245C4.564,29.15,4.212,29.903,3.828,30.299z M4.379,31.608c-0.021,0.399-0.346,1.04-0.735,1.432 c-0.371,0.374-0.742,0.747-1.114,1.121c-0.389,0.392-0.685,0.377-0.659-0.033c0.026-0.409,0.36-1.06,0.75-1.45 c0.485-0.485,0.97-0.97,1.456-1.453c0.058-0.057,0.115-0.113,0.173-0.17C4.346,30.961,4.399,31.209,4.379,31.608z M1.932,26.942 c0-0.597,0-1.194,0-1.79c0.008-0.109,0.017-0.217,0.024-0.321c0.013-0.177,0.352-0.624,0.756-1.002 c0.352-0.33,0.704-0.661,1.055-0.993c0.402-0.379,0.687-0.238,0.684,0.313c-0.003,0.401,0.01,0.809,0.03,1.216 c0.027,0.552-0.258,1.312-0.651,1.701c-0.396,0.391-0.791,0.781-1.188,1.174C2.249,27.628,1.932,27.495,1.932,26.942z M1.812,36.829c-0.019-0.272-0.026-0.552-0.025-0.835c0.002-0.552,0.35-1.316,0.741-1.706c0.369-0.367,0.738-0.733,1.108-1.101 c0.392-0.389,0.695-0.256,0.706,0.296c0.005,0.222,0.013,0.442,0.026,0.659c0.033,0.552-0.21,1.324-0.586,1.728 c-0.381,0.407-0.762,0.815-1.144,1.222C2.259,37.493,1.851,37.38,1.812,36.829z M3.555,40.405c-0.375-0.322-0.7-0.688-0.969-1.106 c-0.299-0.464-0.128-1.195,0.273-1.574c0.35-0.33,0.702-0.66,1.055-0.992c0.402-0.379,0.823-0.242,1.065,0.254 c0.412,0.845,1.066,1.39,2.091,1.39c0.016,0,0.032,0,0.048,0c0.026,0-0.279,0.306-0.683,0.683c-0.447,0.416-0.894,0.832-1.34,1.25 C4.691,40.684,3.973,40.766,3.555,40.405z M42.03,33.626c-0.013,0.552-0.353,1.31-0.75,1.693 c-0.781,0.753-1.581,1.524-2.407,2.323c-0.396,0.383-0.396,0.693,0.001,0.693s1.037-0.316,1.429-0.707 c0.307-0.308,0.615-0.615,0.924-0.923c0.391-0.391,0.685-0.315,0.646,0.168s-0.211,1.006-0.374,1.168 c-0.164,0.162-0.175,0.294-0.027,0.294c0.148,0,0.262,0.073,0.254,0.164c-0.004,0.055-0.009,0.11-0.015,0.165 c-0.678,5.843-16.694,3.5-19.929,3.5c-3.021,0-8.499,0.798-12.967,0.208c-0.547-0.072-0.673-0.477-0.286-0.87 c0.027-0.026,0.054-0.055,0.081-0.082c0.388-0.393,0.627-0.825,0.549-0.974c-0.078-0.148-0.467,0.033-0.876,0.404 c-0.186,0.17-0.373,0.339-0.561,0.508c-0.41,0.369-1.108,0.583-1.549,0.441c-0.44-0.143-0.452-0.59-0.042-0.959 c0.549-0.494,1.098-0.988,1.646-1.482c0.41-0.37,0.73-0.74,0.722-0.827c-0.007-0.086,0.434-0.157,0.986-0.157 c8.792,0,17.584,0,26.375,0c2.408,0,3.055-1.47,3.199-3.225c0.045-0.551,0.113-1.075,0.207-1.167l0.172-0.167 c0.637-0.641,1.272-1.281,1.908-1.922c0.389-0.392,0.707-0.262,0.703,0.291C42.048,32.666,42.041,33.146,42.03,33.626z"/><path d="M7.974,5.856c-0.803,0.817-1.63,1.662-2.483,2.536C5.416,8.468,5.342,8.541,5.268,8.616 C5.145,8.739,5.367,8.528,5.766,8.145c0.703-0.674,1.4-1.343,2.094-2.008c0.399-0.382,0.739-0.76,0.767-0.843 C8.654,5.21,8.361,5.462,7.974,5.856z"/><path d="M2.714,18.91c-1.148,1.178,1.973-1.868,4.997-4.815c0.396-0.386,0.391-0.388-0.007-0.005 C6.129,15.6,4.481,17.201,2.714,18.91z"/></symbol></svg>