<svg xmlns="http://www.w3.org/2000/svg" style="display: none;"><symbol id="facebook" viewBox="0 0 512 512"><title>facebook</title><g> <path style="fill:#FFC61B;" d="M60.761,139.885c-7.81,0-14.144-6.332-14.144-14.144V60.76c0-7.812,6.334-14.144,14.144-14.144 h64.979c7.81,0,14.144,6.332,14.144,14.144s-6.334,14.144-14.144,14.144H74.905v50.837 C74.905,133.553,68.571,139.885,60.761,139.885z"/> <path style="fill:#FFC61B;" d="M451.239,465.384H386.26c-7.81,0-14.144-6.332-14.144-14.144s6.334-14.144,14.144-14.144h50.835 V386.26c0-7.812,6.334-14.144,14.144-14.144c7.81,0,14.144,6.332,14.144,14.144v64.98 C465.383,459.05,459.05,465.384,451.239,465.384z"/> <path style="fill:#FFC61B;" d="M497.856,512H14.144C6.334,512,0,505.668,0,497.856V14.144C0,6.332,6.334,0,14.144,0h483.713 C505.667,0,512,6.332,512,14.144v483.713C512,505.668,505.667,512,497.856,512z M28.287,483.713h455.425V28.287H28.287V483.713z"/> </g><path style="fill:#FEE187;" d="M278.539,273.047h67.619v-67.619h-67.619v-26.941c0-10.875,6.981-18.139,12.965-18.139h54.654V92.729 h-54.654c-41.953,0-76.072,40.915-76.072,86.35v26.35H165.84v67.619h49.593v146.224h63.106v-86.896"/><path style="fill:#FFC61B;" d="M278.541,433.415h-63.106c-7.81,0-14.144-6.332-14.144-14.144v-132.08h-35.448 c-7.81,0-14.144-6.332-14.144-14.144v-67.619c0-7.812,6.334-14.144,14.144-14.144h35.448v-12.206 c0-54.473,41.314-100.493,90.215-100.493h54.654c7.81,0,14.144,6.332,14.144,14.144v67.619c0,7.812-6.333,14.144-14.144,14.144 h-52.544c-0.434,0.74-0.931,2.061-0.931,3.996v12.797h53.476c7.81,0,14.144,6.332,14.144,14.144v67.619 c0,7.812-6.334,14.144-14.144,14.144h-67.619c-7.81,0-14.144-6.332-14.144-14.144c0-7.812,6.334-14.144,14.144-14.144h53.476 v-39.332h-53.476c-7.81,0-14.144-6.332-14.144-14.144v-26.941c0-17.8,12.162-32.283,27.109-32.283h40.51v-39.331h-40.51 c-32.99,0-61.928,33.741-61.928,72.206v26.35c0,7.812-6.334,14.144-14.144,14.144h-35.448v39.332h35.448 c7.81,0,14.144,6.332,14.144,14.144v132.08h34.819v-72.754c0-7.812,6.334-14.144,14.144-14.144c7.81,0,14.144,6.332,14.144,14.144 v86.896C292.684,427.082,286.351,433.415,278.541,433.415z"/></symbol><symbol id="instagram" viewBox="0 0 512 512"><title>instagram</title><g> <path style="fill:#FFC61B;" d="M60.76,139.885c-7.812,0-14.144-6.332-14.144-14.144V60.76c0-7.812,6.332-14.144,14.144-14.144 h64.98c7.812,0,14.144,6.332,14.144,14.144s-6.332,14.144-14.144,14.144H74.903v50.837 C74.903,133.553,68.571,139.885,60.76,139.885z"/> <path style="fill:#FFC61B;" d="M451.239,465.384H386.26c-7.81,0-14.144-6.332-14.144-14.144s6.334-14.144,14.144-14.144h50.835 V386.26c0-7.812,6.334-14.144,14.144-14.144c7.81,0,14.144,6.332,14.144,14.144v64.98 C465.383,459.05,459.05,465.384,451.239,465.384z"/> <path style="fill:#FFC61B;" d="M497.856,512H14.144C6.332,512,0,505.668,0,497.856V14.144C0,6.332,6.332,0,14.144,0h483.713 C505.667,0,512,6.332,512,14.144v483.713C512,505.668,505.667,512,497.856,512z M28.287,483.713h455.425V28.287H28.287V483.713z"/> </g><g> <circle style="fill:#FEE187;" cx="256" cy="256" r="76.151"/> <path style="fill:#FEE187;" d="M123.053,123.053v111.943h59.754c9.121-31.837,38.425-55.146,73.193-55.146 s64.072,23.309,73.193,55.146h59.754V123.053H123.053z"/> </g><g> <path style="fill:#FFC61B;" d="M403.091,234.994V123.053c0-7.812-6.334-14.144-14.144-14.144H123.053 c-7.812,0-14.144,6.332-14.144,14.144v111.941v153.954c0,7.812,6.332,14.144,14.144,14.144h265.895 c7.81,0,14.144-6.332,14.144-14.144v-86.273c0-7.812-6.334-14.144-14.144-14.144s-14.144,6.332-14.144,14.144v72.131H137.196 V249.139h28.796c-0.171,2.269-0.287,4.551-0.287,6.863c0,49.788,40.506,90.294,90.294,90.294s90.294-40.506,90.294-90.294 c0-2.311-0.116-4.594-0.287-6.863h42.94C396.759,249.138,403.091,242.805,403.091,234.994z M256,318.007 c-34.191,0-62.007-27.816-62.007-62.007c0-6.066,0.891-11.924,2.522-17.47c0.171-0.583,0.349-1.163,0.537-1.737 c0.109-0.334,0.222-0.663,0.337-0.994c0.181-0.523,0.362-1.047,0.556-1.563c0.148-0.395,0.307-0.784,0.464-1.174 c0.182-0.458,0.361-0.921,0.554-1.373c0.339-0.795,0.696-1.58,1.068-2.356c0.184-0.385,0.382-0.761,0.573-1.14 c0.223-0.443,0.446-0.885,0.679-1.322c0.221-0.413,0.451-0.82,0.682-1.229c0.215-0.382,0.433-0.761,0.655-1.137 c0.259-0.437,0.523-0.871,0.793-1.303c0.194-0.31,0.393-0.618,0.593-0.924c0.313-0.479,0.627-0.959,0.953-1.43 c0.117-0.17,0.24-0.337,0.359-0.505c9.865-13.944,25.263-23.47,42.49-25.791c0.332-0.044,0.665-0.089,0.999-0.127 c0.518-0.061,1.038-0.115,1.559-0.163c0.528-0.048,1.058-0.088,1.59-0.122c0.39-0.025,0.779-0.055,1.17-0.074 c0.953-0.044,1.911-0.074,2.875-0.074c0.965,0,1.922,0.03,2.875,0.074c0.392,0.018,0.781,0.048,1.17,0.074 c0.532,0.034,1.061,0.074,1.588,0.122c0.52,0.048,1.041,0.102,1.559,0.163c0.334,0.038,0.666,0.083,0.999,0.127 c17.204,2.318,32.584,11.823,42.451,25.736c0.137,0.194,0.279,0.385,0.413,0.58c0.314,0.453,0.615,0.914,0.917,1.376 c0.214,0.327,0.426,0.655,0.632,0.986c0.259,0.413,0.513,0.83,0.762,1.25c0.236,0.397,0.465,0.799,0.693,1.204 c0.219,0.388,0.438,0.775,0.648,1.168c0.252,0.47,0.491,0.946,0.73,1.424c0.175,0.348,0.356,0.692,0.525,1.044 c0.378,0.788,0.738,1.584,1.082,2.39c0.177,0.414,0.339,0.839,0.508,1.257c0.173,0.429,0.347,0.857,0.511,1.291 c0.185,0.495,0.359,0.996,0.532,1.496c0.123,0.355,0.245,0.709,0.362,1.066c0.181,0.557,0.355,1.119,0.52,1.683 c1.636,5.553,2.53,11.422,2.53,17.499C318.007,290.191,290.191,318.007,256,318.007z M374.804,220.85H339.17 c-0.112-0.263-0.239-0.516-0.352-0.778c-0.39-0.897-0.791-1.788-1.208-2.669c-0.235-0.494-0.479-0.98-0.721-1.468 c-0.342-0.689-0.693-1.372-1.052-2.051c-0.27-0.509-0.54-1.017-0.819-1.52c-0.369-0.665-0.752-1.321-1.137-1.976 c-0.494-0.84-1.001-1.669-1.52-2.491c-0.376-0.594-0.748-1.189-1.137-1.774c-0.443-0.666-0.904-1.32-1.365-1.974 c-0.233-0.33-0.465-0.66-0.703-0.987c-0.53-0.733-1.069-1.457-1.621-2.172c-0.081-0.105-0.164-0.208-0.246-0.313 c-14.319-18.411-35.588-31.14-59.84-34.223c-0.515-0.066-1.028-0.139-1.544-0.197c-0.617-0.068-1.238-0.122-1.858-0.177 c-0.83-0.075-1.662-0.139-2.496-0.191c-0.487-0.03-0.972-0.061-1.46-0.083c-1.358-0.062-2.718-0.103-4.088-0.103 c-1.369,0-2.73,0.041-4.087,0.103c-0.488,0.023-0.973,0.054-1.46,0.083c-0.834,0.052-1.666,0.116-2.496,0.191 c-0.621,0.055-1.242,0.109-1.858,0.177c-0.516,0.058-1.03,0.13-1.544,0.197c-24.262,3.085-45.54,15.824-59.859,34.246 c-0.074,0.093-0.149,0.187-0.221,0.28c-0.557,0.723-1.103,1.455-1.639,2.195c-0.228,0.314-0.453,0.632-0.676,0.95 c-0.468,0.665-0.936,1.329-1.387,2.008c-0.356,0.535-0.697,1.081-1.042,1.624c-0.559,0.88-1.103,1.768-1.632,2.667 c-0.375,0.638-0.748,1.276-1.107,1.924c-0.286,0.515-0.562,1.034-0.837,1.554c-0.351,0.662-0.692,1.329-1.027,2.003 c-0.25,0.502-0.502,1.004-0.744,1.512c-0.402,0.846-0.785,1.703-1.161,2.563c-0.127,0.291-0.269,0.576-0.393,0.868h-35.632v-83.653 h237.608V220.85z"/> <path style="fill:#FFC61B;" d="M330.28,182.757h27.464c7.81,0,14.144-6.332,14.144-14.144s-6.333-14.144-14.144-14.144H330.28 c-7.81,0-14.144,6.332-14.144,14.144S322.468,182.757,330.28,182.757z"/> </g></symbol><symbol id="twitter" viewBox="0 0 512 512"><title>twitter</title><g> <path style="fill:#FFC61B;" d="M60.76,139.885c-7.812,0-14.144-6.332-14.144-14.144V60.76c0-7.812,6.332-14.144,14.144-14.144 h64.98c7.812,0,14.144,6.332,14.144,14.144s-6.332,14.144-14.144,14.144H74.903v50.837 C74.903,133.553,68.571,139.885,60.76,139.885z"/> <path style="fill:#FFC61B;" d="M451.24,465.384h-64.98c-7.812,0-14.144-6.332-14.144-14.144s6.332-14.144,14.144-14.144h50.836 V386.26c0-7.812,6.332-14.144,14.144-14.144s14.144,6.332,14.144,14.144v64.98C465.384,459.05,459.05,465.384,451.24,465.384z"/> <path style="fill:#FFC61B;" d="M497.856,512H14.144C6.332,512,0,505.668,0,497.856V14.144C0,6.332,6.332,0,14.144,0h483.713 C505.668,0,512,6.332,512,14.144v483.713C512,505.668,505.668,512,497.856,512z M28.287,483.713h455.425V28.287H28.287V483.713z"/> </g><path style="fill:#FEE187;" d="M369.122,266.038c7.935-21.196,12.128-43.818,12.128-65.41v-1.03c0-3.467,1.567-6.728,4.302-8.953 c10.381-8.43,26.871-29.492,26.871-29.492s-39.441-6.635-40.14-6.635c-2.116,0-12.5-10.591-14.12-12.016 c-12.345-10.882-28.226-16.875-44.714-16.875c-7.135,0-14.337,1.112-21.409,3.307c-21.913,6.795-38.821,24.872-44.128,47.172 c-1.989,8.363-2.526,16.738-1.6,24.883c0.105,0.938-0.337,1.59-0.608,1.897c-0.481,0.537-1.161,0.846-1.866,0.846 c-0.078,0-0.16-0.003-0.239-0.01c-23.896-2.222-46.623-9.07-67.194-20.023c-20.723-11.032-39.26-26.228-54.602-45.048 c-1.556-1.914-4.549-1.679-5.792,0.453c-5.986,10.274-9.15,22.022-9.15,33.977c0,18.319,7.363,35.585,20.148,48.173 c-5.377-1.276-10.584-3.283-15.417-5.971c-2.339-1.298-5.218,0.373-5.25,3.049c-0.332,27.215,15.602,51.435,39.473,62.338 c-0.481,0.01-0.963,0.014-1.444,0.014c-3.783,0-7.616-0.362-11.386-1.086c-2.635-0.499-4.848,1.997-4.031,4.549 c7.751,24.193,28.577,42.022,53.503,46.069c-20.685,13.886-44.777,21.211-69.847,21.211l-7.813-0.004 c-2.411,0-4.45,1.571-5.061,3.904c-0.605,2.294,0.508,4.72,2.563,5.915c28.251,16.442,60.477,25.13,93.204,25.13 c28.648,0,55.446-5.683,79.65-16.897c22.19-10.277,41.796-24.969,58.279-43.669"/><path style="fill:#FFC61B;" d="M195.506,400.516c-35.225,0-69.915-9.353-100.319-27.05c-7.581-4.404-11.338-13.349-9.124-21.743 c2.226-8.495,9.933-14.442,18.736-14.442l7.82,0.003c12.205,0,24.177-1.966,35.53-5.782c-15.189-10.144-26.961-25.252-32.659-43.039 c-1.243-3.881-1.074-8.043,0.355-11.759c-15.111-15.284-23.914-36.256-23.643-58.543c0.068-5.441,2.542-10.391,6.725-13.67 c-4.073-9.813-6.209-20.438-6.209-31.41c0-14.453,3.83-28.665,11.074-41.097c2.923-5.014,8.123-8.274,13.906-8.722 c5.792-0.455,11.421,1.969,15.079,6.466c14.066,17.255,30.984,31.218,50.275,41.488c15.309,8.15,31.687,13.746,48.839,16.704 c0.311-5.015,1.065-10.056,2.262-15.084c6.459-27.143,27.036-49.141,53.699-57.408c8.424-2.615,17.037-3.942,25.597-3.942 c19.937,0,39.137,7.249,54.067,20.409c0.412,0.362,1.311,1.218,2.485,2.355c1.361,1.317,4.963,4.803,7.213,6.718 c4.789,0.745,14.906,2.43,37.554,6.24c4.919,0.827,9.038,4.184,10.841,8.834c1.803,4.65,1.025,9.906-2.049,13.832 c-1.74,2.222-16.944,21.498-28.167,30.986c-0.03,23.2-4.533,47.448-13.026,70.138c-2.74,7.317-10.888,11.028-18.204,8.287 c-7.315-2.738-11.026-10.889-8.287-18.204c7.348-19.627,11.231-40.531,11.231-60.451v-1.03c0-7.744,3.472-15.006,9.524-19.927 c2.535-2.058,5.676-5.202,8.892-8.677c-7.059-1.173-12.851-2.124-14.574-2.385c-6.396-0.522-11.171-4.891-20.62-14.036 c-0.706-0.682-1.257-1.222-1.57-1.508c-9.707-8.556-22.265-13.294-35.308-13.294c-5.714,0-11.506,0.898-17.216,2.672 c-17.165,5.322-30.406,19.476-34.561,36.938c-1.608,6.758-2.047,13.493-1.307,20.012c0.522,4.687-0.967,9.37-4.083,12.879 c-3.561,3.974-8.761,6.039-14.042,5.527c-25.611-2.382-50.015-9.656-72.482-21.616c-17.534-9.335-33.385-21.254-47.292-35.544 c-0.967,4.055-1.462,8.23-1.462,12.439c0,14.455,5.656,27.983,15.927,38.094c4.523,4.452,5.526,11.373,2.454,16.926 c-3.072,5.554-9.466,8.384-15.643,6.915c-0.311-0.074-0.622-0.15-0.932-0.228c4.396,14.401,14.757,26.566,28.883,33.018 c6,2.741,9.308,9.264,7.976,15.724c-1.085,5.26-5.012,9.34-9.994,10.751c8.189,11.52,20.827,19.667,35.052,21.976 c5.731,0.931,10.312,5.269,11.551,10.942c1.239,5.673-1.115,11.527-5.935,14.763c-15.4,10.338-32.528,17.412-50.52,20.962 c17.846,6.133,36.673,9.306,55.682,9.306c26.583,0,51.381-5.244,73.704-15.586c20.398-9.447,38.435-22.968,53.616-40.189 c5.165-5.86,14.103-6.423,19.962-1.257c5.86,5.165,6.423,14.103,1.257,19.962c-17.79,20.183-38.967,36.045-62.945,47.151 C255.027,394.39,226.228,400.516,195.506,400.516z M244.846,189.634c0.021,0.001,0.042,0.004,0.064,0.006 C244.89,189.638,244.868,189.635,244.846,189.634z M372.271,168.663c0.006,0,0.01,0,0.016,0 C372.281,168.663,372.275,168.663,372.271,168.663z M110.844,147.588c0.004,0.006,0.01,0.013,0.014,0.018 C110.852,147.599,110.848,147.595,110.844,147.588z M372.906,140.39c0.352,0.021,0.84,0.071,1.721,0.191 C374.099,140.487,373.524,140.418,372.906,140.39z"/></symbol><symbol id="viber" viewBox="0 0 512 512"><title>viber</title><g> <path style="fill:#FFC61B;" d="M60.76,139.883c-7.812,0-14.144-6.334-14.144-14.144V60.761c0-7.81,6.332-14.144,14.144-14.144 h64.98c7.812,0,14.144,6.334,14.144,14.144s-6.332,14.144-14.144,14.144H74.903v50.835 C74.903,133.551,68.571,139.883,60.76,139.883z"/> <path style="fill:#FFC61B;" d="M451.239,465.383H386.26c-7.81,0-14.144-6.334-14.144-14.144s6.334-14.144,14.144-14.144h50.835 V386.26c0-7.81,6.334-14.144,14.144-14.144c7.81,0,14.144,6.334,14.144,14.144v64.979 C465.383,459.05,459.05,465.383,451.239,465.383z"/> <path style="fill:#FFC61B;" d="M497.856,512H14.144C6.332,512,0,505.667,0,497.856V14.144C0,6.334,6.332,0,14.144,0h483.713 C505.667,0,512,6.334,512,14.144v483.713C512,505.667,505.667,512,497.856,512z M28.287,483.713h455.425V28.287H28.287V483.713z"/> <path style="fill:#FFC61B;" d="M382.202,253.637c-7.486,0-13.735-5.874-14.114-13.435c-0.462-9.217-0.905-14.789-2.167-21.522 c-4.625-25.647-17.057-45.961-36.969-60.481c-16.446-11.923-30.173-16.561-54.368-18.354c-7.79-0.577-13.637-7.36-13.059-15.151 c0.577-7.792,7.369-13.643,15.151-13.059c29.432,2.181,48.108,8.601,68.913,23.685c26.02,18.972,42.213,45.289,48.153,78.243 c1.536,8.189,2.083,14.93,2.598,25.221c0.39,7.803-5.616,14.444-13.417,14.834C382.68,253.631,382.44,253.637,382.202,253.637z"/> <path style="fill:#FFC61B;" d="M338.647,250.881c-7.81,0-14.144-6.334-14.144-14.144c0-9.517-2.462-19.305-6.587-26.181 c-0.144-0.24-0.281-0.485-0.41-0.734c-4.505-8.63-11.25-15.772-19.511-20.654c-7.509-4.346-19.31-7.823-29.258-8.588 c-7.789-0.6-13.616-7.399-13.018-15.186c0.6-7.79,7.42-13.579,15.186-13.018c14.221,1.093,30.074,5.836,41.37,12.376 c12.8,7.564,23.169,18.47,30.116,31.62c6.612,11.202,10.398,25.884,10.398,40.365C352.791,244.548,346.457,250.881,338.647,250.881 z"/> <path style="fill:#FFC61B;" d="M298.645,253.968c-7.81,0-14.144-6.334-14.144-14.144c0-3.356-0.842-6.843-2.195-9.1 c-0.146-0.24-0.281-0.487-0.412-0.735c-1.581-3.031-3.94-5.532-6.823-7.234c-2.283-1.322-6.935-2.894-11.205-3.222 c-7.787-0.6-13.616-7.399-13.016-15.187c0.6-7.787,7.399-13.586,15.187-13.016c7.977,0.615,16.912,3.301,23.317,7.011 c7.417,4.383,13.401,10.65,17.425,18.203c3.875,6.631,6.007,14.879,6.007,23.282C312.788,247.635,306.456,253.968,298.645,253.968z "/> </g><path style="fill:#FEE187;" d="M232.063,286.922c-9.082-8.126-18.162-18.162-22.941-26.287 c-6.691-10.514-11.471-23.897-11.471-31.545c0-3.345-0.054-6.69,2.868-10.036c2.716-3.11,6.691-5.735,9.082-7.647 c10.992-8.604,13.383-11.471,14.817-16.25s0-10.992-4.779-19.596c-8.604-15.773-32.501-45.883-41.104-51.619 c-6.616-5.45-14.339-4.301-17.206-3.823c-4.301,0.956-9.56,4.301-21.508,12.905c-7.169,5.257-16.728,14.339-19.118,18.162 c-5.257,9.082-4.779,16.25,1.434,33.935c13.038,37.834,46.361,83.163,49.228,86.51c27.243,35.369,58.788,64.045,96.068,87.464 c33.047,20.316,54.009,28.2,60.7,31.067c14.385,5.527,32.501-0.956,36.802-3.823c0.956-0.478,4.301-2.868,5.257-3.823 c5.257-4.301,10.992-10.992,15.773-17.206c3.346-4.301,5.735-8.604,7.169-11.949c2.406-5.476,3.283-15.835-3.345-22.464 c-2.868-3.345-22.464-19.118-32.023-25.331c-7.169-4.779-18.162-11.47-22.941-13.861c-6.691-3.345-13.383-3.823-19.596-1.912 c-1.434,0.478-2.39,0.956-3.345,1.434c-2.868,1.434-5.257,4.301-10.992,10.992c-3.823,4.779-7.169,9.082-7.647,9.082 c0,0-0.478,0-0.478,0.478"/><path style="fill:#FFC61B;" d="M340.773,406.423c-5.93,0-12.012-0.871-17.712-3.061c-0.167-0.065-0.332-0.133-0.498-0.204 c-0.676-0.289-1.506-0.632-2.489-1.04c-8.857-3.667-29.594-12.255-60.048-30.977c-38.92-24.449-71.515-54.107-99.755-90.74 c-5.012-6.21-38.087-51.735-51.507-90.674c-6.683-19.02-8.577-31.335-0.301-45.63c0.081-0.137,0.163-0.273,0.246-0.409 c4.058-6.493,15.82-16.991,22.749-22.071c12.796-9.216,19.571-13.7,26.804-15.305c0.246-0.055,0.494-0.103,0.743-0.146 c13.446-2.239,22.586,2.157,28.007,6.442c12.222,8.693,36.752,40.98,45.045,56.179c4.162,7.493,9.367,18.914,5.909,30.436 c-2.803,9.345-8.39,14.511-19.59,23.279c-0.686,0.546-1.477,1.144-2.331,1.784c-1.407,1.057-3.1,2.327-4.242,3.42 c-0.007,0.385-0.007,0.833-0.007,1.208v0.18c0,3.843,3.298,14.584,9.26,23.952c0.089,0.14,0.175,0.28,0.259,0.423 c3.667,6.233,11.589,15.23,20.183,22.918c5.822,5.209,6.318,14.149,1.109,19.971c-5.208,5.82-14.151,6.319-19.971,1.109 c-10.824-9.686-20.364-20.67-25.573-29.439c-6.768-10.702-13.552-26.828-13.552-38.933v-0.173 c-0.001-4.153-0.003-11.879,6.356-19.166c3.015-3.452,6.592-6.137,9.205-8.096c0.622-0.468,1.201-0.898,1.696-1.294 c0.04-0.031,0.079-0.062,0.119-0.093c8.555-6.696,9.64-8.243,9.918-8.97c-0.024-0.537-0.32-3.095-3.527-8.871 c-8.396-15.388-30.929-42.902-36.588-46.719c-0.373-0.252-0.798-0.563-1.146-0.85c-1.189-0.98-2.764-1.242-5.359-0.871 c-2.765,0.914-12.065,7.609-16.097,10.514c-6.349,4.656-13.731,11.934-15.367,14.159c-1.894,3.308-2.826,5.868,2.762,21.773 c11.933,34.624,42.925,77.514,46.671,82.049c0.16,0.187,0.267,0.322,0.419,0.516c26.193,34.004,56.412,61.521,92.386,84.121 c28.423,17.473,47.705,25.459,55.941,28.869c0.969,0.4,1.805,0.747,2.509,1.047c8.316,3.058,20.827-0.832,23.79-2.535 c0.301-0.198,0.611-0.383,0.926-0.559c0.595-0.382,1.841-1.283,2.349-1.701c0.248-0.233,0.501-0.457,0.764-0.672 c3.601-2.946,8.4-8.232,13.519-14.882c3.153-4.058,4.81-7.573,5.379-8.898c0.72-1.638,1.086-5.459-0.345-6.889 c-0.214-0.215-0.423-0.437-0.622-0.665c-2.87-2.98-20.298-17.084-29.108-22.811c-0.045-0.03-0.091-0.059-0.136-0.089 c-6.998-4.666-17.411-10.973-21.422-12.98c-3.147-1.574-6.076-1.931-8.949-1.092c-0.317,0.112-0.56,0.225-1.052,0.47 c-1.014,0.856-3.54,3.803-6.206,6.918l-0.501,0.586l-1.495,1.871c-3.08,3.864-5.362,6.727-7.574,8.715 c-2.556,2.535-6.073,4.099-9.957,4.099c-7.81,0-14.144-6.334-14.144-14.144c0-4.761,2.287-8.997,5.82-11.67 c0.973-1.17,2.522-3.112,3.734-4.631l1.67-2.092c0.099-0.124,0.202-0.248,0.305-0.369l0.661-0.771 c6.085-7.102,9.437-11.012,14.748-13.668c1.187-0.594,2.812-1.406,5.203-2.202c0.102-0.034,0.206-0.068,0.31-0.099 c9.929-3.056,20.33-2.095,30.079,2.779c5.595,2.798,17.111,9.845,24.396,14.699c9.216,6.004,29.181,21.692,34.494,27.393 c10.755,11.004,10.694,27.321,6.044,37.904c-2.092,4.882-5.288,10.23-8.952,14.94c-6.41,8.335-12.367,14.815-17.667,19.213 c-1.881,1.68-4.986,3.939-7.178,5.223C366.427,402.111,353.972,406.423,340.773,406.423z M358.609,373.685 c-0.099,0.049-0.222,0.11-0.362,0.188C358.367,373.808,358.488,373.746,358.609,373.685z M360.374,372.332 c-0.069,0.065-0.13,0.126-0.184,0.18C360.251,372.45,360.314,372.391,360.374,372.332z M293.141,297.154c-0.001,0-0.003,0-0.004,0 C293.14,297.154,293.14,297.154,293.141,297.154z M293.162,297.154c-0.003,0-0.007,0-0.01,0 C293.157,297.154,293.16,297.154,293.162,297.154z M293.192,297.154c-0.006,0-0.013,0-0.018,0 C293.179,297.154,293.186,297.154,293.192,297.154z M293.215,297.154c-0.004,0-0.01,0-0.016,0 C293.203,297.154,293.211,297.154,293.215,297.154z M293.242,297.154c-0.007,0-0.014,0-0.021,0 C293.228,297.154,293.235,297.154,293.242,297.154z"/></symbol><symbol id="rss" viewBox="0 0 512 512"><title>rss</title><g> <path style="fill:#FFC61B;" d="M60.761,139.885c-7.81,0-14.144-6.332-14.144-14.144V60.76c0-7.812,6.334-14.144,14.144-14.144 h64.979c7.81,0,14.144,6.332,14.144,14.144s-6.334,14.144-14.144,14.144H74.905v50.837 C74.905,133.553,68.571,139.885,60.761,139.885z"/> <path style="fill:#FFC61B;" d="M451.239,465.384H386.26c-7.81,0-14.144-6.332-14.144-14.144s6.334-14.144,14.144-14.144h50.835 V386.26c0-7.812,6.334-14.144,14.144-14.144c7.81,0,14.144,6.332,14.144,14.144v64.98 C465.383,459.05,459.05,465.384,451.239,465.384z"/> <path style="fill:#FFC61B;" d="M497.856,512H14.144C6.334,512,0,505.668,0,497.856V14.144C0,6.332,6.334,0,14.144,0h483.713 C505.667,0,512,6.332,512,14.144v483.713C512,505.668,505.667,512,497.856,512z M28.287,483.713h455.425V28.287H28.287V483.713z"/> </g><path style="fill:#FEE187;" d="M385.771,385.769h-48.957c-0.836-42.94-14.332-82.834-36.901-116.095 c-37.935-55.908-101.506-93.078-173.684-94.484v-48.962c109.937,1.747,203.762,71.083,241.648,168.184"/><path style="fill:#FFC61B;" d="M385.771,399.913h-48.957c-7.704,0-13.992-6.165-14.141-13.869 c-0.755-38.82-12.673-76.315-34.462-108.428c-36.652-54.016-97.308-87.02-162.256-88.283c-7.703-0.15-13.869-6.437-13.869-14.141 v-48.964c0-3.79,1.52-7.421,4.222-10.08c2.7-2.658,6.328-4.113,10.147-4.062c56.116,0.891,109.988,18.504,155.789,50.933 c44.787,31.709,78.956,75.367,98.81,126.25c2.839,7.277-0.758,15.479-8.036,18.317c-7.278,2.841-15.479-0.761-18.316-8.035 c-35.346-90.584-118.491-151.58-214.33-158.547v20.74c68.806,5.56,132.065,42.247,171.244,99.989 c22.266,32.818,35.502,70.553,38.648,109.892h35.506c7.81,0,14.144,6.332,14.144,14.144S393.581,399.913,385.771,399.913z"/><path style="fill:#FEE187;" d="M238.045,385.769c-2.188-60.675-51.141-109.627-111.815-111.815v-48.975 c87.674,2.221,158.576,73.12,160.796,160.791H238.045z"/><path style="fill:#FFC61B;" d="M287.026,399.913h-48.981c-7.614,0-13.861-6.027-14.134-13.635 c-1.916-53.145-45.048-96.274-98.191-98.189c-7.608-0.274-13.634-6.522-13.634-14.135v-48.975c0-3.813,1.54-7.465,4.27-10.127 c2.731-2.66,6.411-4.113,10.232-4.011c95.477,2.417,172.161,79.098,174.578,174.571c0.096,3.812-1.351,7.502-4.013,10.232 C294.491,398.374,290.839,399.913,287.026,399.913z M250.965,371.626h20.863c-8.326-68.759-62.693-123.123-131.455-131.45v20.858 C197.39,269.168,242.831,314.608,250.965,371.626z"/><path style="fill:#FEE187;" d="M154.297,385.772c-15.476,0-28.068-12.591-28.068-28.068s12.591-28.068,28.068-28.068 s28.068,12.591,28.068,28.068C182.365,373.182,169.773,385.772,154.297,385.772z"/><path style="fill:#FFC61B;" d="M154.297,399.916c-23.275,0-42.212-18.935-42.212-42.212s18.937-42.212,42.212-42.212 s42.212,18.937,42.212,42.212S177.572,399.916,154.297,399.916z M154.297,343.78c-7.679,0-13.924,6.247-13.924,13.924 c0,7.677,6.246,13.924,13.924,13.924s13.924-6.247,13.924-13.924C168.222,350.026,161.974,343.78,154.297,343.78z"/></symbol></svg>