<?xml version="1.0" standalone="no"?>
<!DOCTYPE svg PUBLIC "-//W3C//DTD SVG 20010904//EN"
 "http://www.w3.org/TR/2001/REC-SVG-20010904/DTD/svg10.dtd">
<svg version="1.0" xmlns="http://www.w3.org/2000/svg"
 width="200.000000pt" height="200.000000pt" viewBox="0 0 200.000000 200.000000"
 preserveAspectRatio="xMidYMid meet">
<metadata>
Created by potrace 1.14, written by Peter Selinger 2001-2017
</metadata>
<g transform="translate(0.000000,200.000000) scale(0.100000,-0.100000)"
fill="#000000" stroke="none">
<path d="M805 1993 c-113 -15 -264 -66 -354 -121 -189 -114 -276 -295 -226
-467 33 -115 135 -237 254 -306 52 -29 60 -38 61 -64 0 -31 41 -128 65 -155 7
-8 16 -30 18 -49 6 -38 14 -48 42 -53 16 -3 20 -12 21 -51 1 -33 9 -58 28 -85
14 -21 26 -42 26 -47 0 -5 10 -19 22 -32 19 -20 22 -35 22 -96 -2 -150 -13
-177 -86 -208 -16 -7 -33 -27 -44 -52 -10 -23 -20 -44 -21 -48 -2 -3 17 -31
42 -63 25 -32 45 -65 45 -72 0 -25 25 -15 109 41 l83 55 25 -20 c25 -19 53
-27 53 -13 0 9 -48 70 -78 99 -15 14 -48 35 -75 47 -33 14 -46 26 -43 36 7 22
21 159 20 198 0 31 1 32 18 16 10 -9 18 -28 18 -43 0 -19 8 -31 28 -41 15 -7
41 -24 59 -37 27 -20 33 -21 45 -8 11 12 15 12 29 0 14 -13 18 -13 29 0 11 14
14 14 27 0 14 -13 19 -12 47 8 17 13 43 30 59 37 19 10 27 22 27 41 0 24 16
50 31 50 3 0 6 -15 5 -32 0 -38 13 -165 20 -189 3 -12 -7 -21 -35 -33 -69 -27
-168 -128 -152 -155 6 -9 16 -6 38 13 l30 25 64 -41 c35 -22 74 -49 85 -60
l22 -20 36 54 c20 29 46 64 57 78 19 25 19 25 -1 68 -14 29 -36 52 -70 73 -47
29 -49 32 -56 87 -4 31 -7 85 -7 119 1 52 5 68 27 94 14 17 26 35 26 40 0 5 9
23 21 38 14 19 22 45 23 77 1 40 4 49 21 52 27 5 45 30 45 63 0 15 5 31 11 35
16 10 69 125 69 151 0 16 15 32 53 56 130 83 215 208 224 330 6 72 -8 148 -37
195 l-19 30 -48 -15 c-79 -26 -224 -22 -307 7 -74 27 -146 82 -173 133 -23 45
-20 107 7 155 13 23 21 44 18 47 -23 23 -312 42 -423 28z m340 -37 c11 -2 25
-5 32 -5 9 -1 8 -10 -3 -37 -20 -48 -20 -113 1 -157 22 -46 94 -113 149 -138
101 -44 263 -58 351 -29 46 15 60 4 75 -62 37 -151 -32 -303 -184 -407 -44
-30 -66 -33 -66 -9 0 18 -31 48 -49 48 -14 0 -17 12 -17 68 -1 194 -73 339
-193 390 -102 43 -135 50 -232 48 -83 -2 -103 -6 -163 -34 -38 -18 -73 -32
-80 -32 -6 0 -25 -17 -42 -38 -71 -85 -105 -190 -107 -334 -1 -52 -5 -68 -16
-68 -19 0 -51 -29 -51 -47 0 -21 -17 -15 -79 26 -85 58 -158 137 -194 211 -28
57 -32 74 -32 150 0 76 4 92 33 152 71 144 238 251 466 299 73 15 120 18 236
14 80 -2 154 -6 165 -9z m50 -351 c33 -16 62 -32 64 -37 2 -5 14 -13 27 -18
28 -11 66 -68 88 -133 30 -90 38 -175 25 -272 -6 -38 -12 -88 -15 -110 -16
-126 -59 -310 -76 -327 -28 -28 -42 -11 -18 22 25 34 68 197 78 290 11 100 8
273 -5 295 -6 12 -14 41 -18 65 -13 87 -63 156 -145 200 -27 15 -284 21 -331
8 -35 -10 -98 -61 -126 -103 -13 -19 -28 -60 -34 -90 -6 -31 -16 -73 -24 -95
-18 -52 -12 -260 10 -359 9 -40 18 -78 19 -85 10 -46 31 -105 47 -127 10 -15
19 -29 19 -32 0 -12 -41 7 -50 22 -7 14 -41 176 -56 271 -2 14 -6 39 -9 55
-27 168 -25 248 8 360 16 58 60 128 87 142 12 6 25 15 29 20 10 13 52 35 106
54 79 29 221 21 300 -16z m0 -58 c69 -37 107 -88 118 -159 l6 -37 -37 24 c-83
54 -182 57 -232 6 -26 -26 -28 -26 -39 -8 -7 10 -28 25 -48 34 -57 23 -134 9
-205 -39 l-26 -18 4 32 c8 53 42 111 87 145 52 39 63 41 217 38 93 -1 133 -6
155 -18z m-240 -171 c19 -8 35 -20 35 -26 0 -7 -3 -10 -7 -8 -48 24 -88 38
-99 34 -7 -3 -16 -1 -19 4 -9 15 51 12 90 -4z m231 7 c-3 -4 -20 -8 -37 -9
-17 -1 -41 -10 -54 -18 -28 -19 -35 -20 -35 -6 0 16 59 39 99 40 19 0 31 -3
27 -7z m48 -12 c4 -5 -3 -7 -14 -4 -23 6 -26 13 -6 13 8 0 17 -4 20 -9z m-434
-14 c0 -2 -12 -14 -27 -28 -20 -18 -24 -19 -13 -4 18 24 40 42 40 32z m491
-28 c13 -26 7 -24 -22 7 -17 19 -19 23 -6 18 10 -3 22 -15 28 -25z m-369 11
c13 -6 34 -17 48 -25 23 -14 26 -13 43 6 12 16 17 17 17 6 0 -26 24 -26 78 0
64 30 99 25 153 -24 22 -20 49 -36 62 -37 22 -1 22 -3 20 -128 -3 -172 -57
-408 -93 -408 -5 0 -22 24 -36 53 -15 28 -40 71 -56 94 -26 39 -27 45 -14 65
18 29 12 66 -16 95 -40 42 -53 22 -18 -28 17 -23 19 -33 10 -49 -12 -23 -22
-27 -14 -6 10 27 -30 40 -60 19 -16 -10 -24 -9 -47 4 -22 13 -31 14 -43 4 -8
-7 -12 -20 -10 -29 5 -14 2 -13 -10 2 -21 26 -20 29 9 64 31 37 17 51 -19 20
-31 -28 -39 -65 -20 -96 13 -20 12 -26 -14 -65 -16 -23 -41 -66 -56 -94 -14
-29 -30 -53 -35 -53 -31 0 -87 221 -96 382 -8 123 -1 175 20 158 10 -9 22 -3
52 23 65 58 97 68 145 47z m-290 -264 c4 -26 9 -68 13 -94 3 -25 12 -71 19
-103 8 -32 11 -60 8 -63 -13 -14 -22 -3 -22 28 0 18 -7 39 -15 46 -23 19 -65
119 -65 156 0 91 50 116 62 30z m838 35 c25 -47 6 -134 -46 -210 -13 -20 -24
-48 -24 -64 0 -19 -4 -27 -12 -24 -7 2 -11 11 -10 18 2 8 13 73 24 144 11 72
22 136 24 143 5 19 32 14 44 -7z m-395 -191 c35 -22 63 -60 120 -163 43 -78
68 -99 104 -90 23 6 25 5 12 -10 -36 -44 -97 -7 -147 90 -38 72 -65 100 -101
106 -10 1 -23 6 -30 10 -6 4 -14 3 -18 -3 -3 -5 -16 -10 -29 -10 -30 0 -66
-40 -109 -120 -29 -56 -40 -67 -76 -80 -36 -13 -43 -13 -56 1 -14 14 -13 16
14 16 40 0 55 14 98 92 59 106 90 147 125 164 43 21 54 21 93 -3z m5 -105 c26
-16 4 -25 -61 -25 -61 0 -70 2 -59 14 18 22 91 29 120 11z m40 -53 c0 -7 -59
-24 -90 -27 -34 -2 -86 11 -94 23 -2 4 38 7 90 7 52 0 94 -1 94 -3z m-89 -56
c26 1 60 9 76 18 l30 15 18 -40 c20 -43 55 -74 98 -84 15 -4 27 -10 27 -12 0
-3 -25 -34 -55 -68 -30 -35 -55 -73 -55 -84 0 -12 -4 -21 -10 -21 -5 0 -9 4
-7 9 6 23 -20 11 -32 -15 -20 -41 -34 -47 -49 -19 -12 24 -42 25 -42 1 0 -6
-5 -3 -11 7 -14 24 -27 21 -41 -8 -9 -19 -15 -22 -29 -15 -9 6 -20 23 -24 40
-7 31 -25 42 -25 15 0 -8 -5 -15 -11 -15 -5 0 -9 8 -7 18 2 11 -20 45 -55 84
-31 36 -57 68 -57 71 0 3 13 8 30 12 42 9 74 37 94 84 l19 40 36 -18 c22 -11
53 -17 82 -15z m-212 -497 c48 -20 106 -69 83 -69 -7 0 -44 -21 -82 -47 -39
-25 -72 -44 -74 -42 -2 2 -20 26 -40 52 -46 60 -43 95 12 132 31 21 38 22 45
10 4 -8 30 -24 56 -36z m533 14 c34 -30 32 -67 -6 -118 -20 -26 -36 -50 -36
-55 0 -7 -133 74 -159 96 -10 9 35 44 80 64 28 11 52 27 56 35 5 16 31 7 65
-22z"/>
<path d="M818 1276 c-23 -17 -38 -59 -27 -77 6 -10 28 -14 74 -14 36 0 65 -2
65 -4 0 -5 -53 -51 -60 -52 -3 0 -14 -2 -25 -4 -11 -2 -30 2 -42 10 -26 17
-38 5 -20 -19 11 -15 36 -21 82 -17 11 0 37 16 58 34 37 32 48 57 25 57 -9 0
-9 3 0 12 34 34 -12 88 -74 88 -21 0 -47 -6 -56 -14z m19 -45 c1 -13 -3 -18
-12 -15 -8 3 -11 12 -8 20 7 20 18 17 20 -5z m53 -1 c0 -5 -7 -10 -16 -10 -8
0 -12 5 -9 10 3 6 10 10 16 10 5 0 9 -4 9 -10z"/>
<path d="M995 1282 c-6 -4 -11 -23 -12 -42 -2 -19 -5 -64 -7 -99 -4 -61 7
-111 22 -96 4 4 8 37 8 73 1 37 4 85 7 108 6 43 -2 67 -18 56z"/>
<path d="M1042 1273 c-5 -10 -7 -31 -5 -48 2 -16 5 -63 7 -104 1 -41 7 -76 13
-78 20 -7 22 26 11 189 -4 53 -12 68 -26 41z"/>
<path d="M1116 1269 c-27 -21 -34 -53 -15 -65 8 -5 8 -8 0 -14 -34 -21 53 -94
111 -94 40 0 75 24 64 42 -4 7 -16 5 -34 -5 -26 -15 -31 -15 -65 2 -21 10 -42
25 -46 34 -8 14 -3 16 37 13 60 -4 102 11 97 35 -2 10 -4 21 -4 24 -1 3 -10
15 -21 27 -27 29 -88 30 -124 1z m114 -39 c0 -11 -4 -20 -9 -20 -6 0 -9 9 -8
20 1 11 5 20 9 20 4 0 8 -9 8 -20z m-45 0 c3 -5 -1 -10 -9 -10 -9 0 -16 5 -16
10 0 6 4 10 9 10 6 0 13 -4 16 -10z"/>
</g>
</svg>
